<?xml version="1.0" encoding="iso-8859-1"?>
<!-- Generator: Adobe Illustrator 19.1.0, SVG Export Plug-In . SVG Version: 6.00 Build 0)  -->
<svg version="1.1" xmlns="http://www.w3.org/2000/svg" xmlns:xlink="http://www.w3.org/1999/xlink" x="0px" y="0px"
	 viewBox="0 0 145.01 145" style="enable-background:new 0 0 145.01 145;" xml:space="preserve">
<g id="audio_x5F_unread">
	<g id="shape_10_">
		<g>
			<path style="fill:#488FCC;" d="M72.505,144.75c-39.841,0-72.255-32.411-72.255-72.25c0-39.838,32.414-72.25,72.255-72.25
				c39.842,0,72.255,32.411,72.255,72.25C144.76,112.339,112.347,144.75,72.505,144.75z"/>
		</g>
		<g>
			<path style="fill:#488FCC;" d="M72.505,0.5c39.704,0,72.005,32.299,72.005,72c0,39.701-32.301,72-72.005,72S0.5,112.201,0.5,72.5
				C0.5,32.799,32.801,0.5,72.505,0.5 M72.505,0C32.462,0,0,32.459,0,72.5S32.462,145,72.505,145c40.043,0,72.505-32.46,72.505-72.5
				S112.549,0,72.505,0L72.505,0z"/>
		</g>
	</g>
	<g id="audio_icon_2_">
		<g>
			<path style="fill:#FFFFFF;" d="M53.029,72.788c-1.479,0-2.675,1.221-2.675,2.728v25.317c0,1.508,1.196,2.728,2.675,2.728
				c1.477,0,2.675-1.22,2.675-2.728V75.516C55.704,74.011,54.505,72.788,53.029,72.788z M101.662,72.556
				c-0.284-17.226-14.029-31.155-30.891-31.155c-16.868,0-30.614,13.93-30.896,31.162c-3.091,0.948-5.351,3.952-5.351,7.518v15.673
				c0,4.327,3.327,7.837,7.431,7.837h5.891V73.534c0.016-0.143,0.042-0.286,0.042-0.434c0-12.967,10.265-23.514,22.882-23.514
				c12.614,0,22.881,10.548,22.881,23.514c0,0.199,0.027,0.39,0.057,0.582v29.91h5.89c4.101,0,7.429-3.509,7.429-7.837V80.08
				C107.028,76.51,104.76,73.503,101.662,72.556z M88.527,72.788c-1.479,0-2.676,1.221-2.676,2.728v25.317
				c0,1.508,1.198,2.728,2.676,2.728c1.477,0,2.675-1.22,2.675-2.728V75.516C91.202,74.011,90.004,72.788,88.527,72.788z"/>
		</g>
	</g>
</g>
<g id="Layer_1">
</g>
</svg>
