<?xml version="1.0" encoding="iso-8859-1"?>
<!-- Generator: Adobe Illustrator 19.1.0, SVG Export Plug-In . SVG Version: 6.00 Build 0)  -->
<svg version="1.1" xmlns="http://www.w3.org/2000/svg" xmlns:xlink="http://www.w3.org/1999/xlink" x="0px" y="0px"
	 viewBox="0 0 145.01 145" style="enable-background:new 0 0 145.01 145;" xml:space="preserve">
<g id="doc_x5F_unread">
	<g id="shape_18_">
		<g>
			<path style="fill:#4555A5;" d="M72.505,144.75c-39.841,0-72.255-32.411-72.255-72.25S32.664,0.25,72.505,0.25
				c39.842,0,72.255,32.411,72.255,72.25S112.347,144.75,72.505,144.75z"/>
		</g>
		<g>
			<path style="fill:#4555A5;" d="M72.505,0.5c39.704,0,72.005,32.299,72.005,72s-32.301,72-72.005,72
				c-39.704,0-72.005-32.299-72.005-72S32.801,0.5,72.505,0.5 M72.505,0C32.462,0,0,32.459,0,72.5S32.462,145,72.505,145
				c40.044,0,72.505-32.459,72.505-72.5S112.549,0,72.505,0L72.505,0z"/>
		</g>
	</g>
	<g id="doc_icon_2_">
		<g>
			<path style="fill:#FFFFFF;" d="M95.795,61.74h-1.503v-7.201c0-0.045-0.007-0.091-0.013-0.137
				c-0.002-0.285-0.094-0.566-0.291-0.789L81.916,39.927c-0.004-0.004-0.007-0.005-0.01-0.008c-0.072-0.08-0.156-0.146-0.245-0.203
				c-0.026-0.018-0.053-0.032-0.08-0.047c-0.077-0.041-0.158-0.076-0.242-0.101c-0.023-0.007-0.043-0.015-0.066-0.021
				c-0.091-0.021-0.186-0.035-0.282-0.035H51.325c-1.355,0-2.455,1.093-2.455,2.437v19.792h-1.503c-1.938,0-3.509,1.559-3.509,3.483
				v18.114c0,1.922,1.571,3.483,3.509,3.483h1.503v12.4c0,1.343,1.101,2.437,2.455,2.437h40.511c1.354,0,2.455-1.093,2.455-2.437
				v-12.4h1.503c1.937,0,3.509-1.56,3.509-3.483V65.223C99.304,63.298,97.732,61.74,95.795,61.74z M51.325,41.947h28.439v12.468
				c0,0.674,0.55,1.219,1.227,1.219h10.845v6.105H51.325V41.947z M80.784,73.289c0,5.541-3.384,8.899-8.359,8.899
				c-5.05,0-8.005-3.785-8.005-8.597c0-5.065,3.257-8.85,8.283-8.85C77.928,64.741,80.784,68.626,80.784,73.289z M47.624,81.837
				V65.244c1.414-0.227,3.257-0.352,5.203-0.352c3.232,0,5.328,0.577,6.969,1.805c1.768,1.304,2.879,3.384,2.879,6.367
				c0,3.233-1.187,5.464-2.828,6.843c-1.793,1.479-4.521,2.181-7.854,2.181C49.997,82.088,48.584,81.962,47.624,81.837z
				 M91.836,98.559H51.325V86.82h40.511V98.559z M92.022,79.005c1.162,0,2.45-0.252,3.207-0.552l0.581,2.983
				c-0.707,0.352-2.298,0.726-4.369,0.726c-5.884,0-8.914-3.634-8.914-8.447c0-5.765,4.141-8.975,9.292-8.975
				c1.995,0,3.511,0.402,4.193,0.753l-0.783,3.032c-0.782-0.325-1.868-0.626-3.233-0.626c-3.055,0-5.43,1.83-5.43,5.59
				C86.567,76.873,88.587,79.005,92.022,79.005z M58.089,73.689c0.025-3.51-2.046-5.365-5.353-5.365
				c-0.859,0-1.415,0.076-1.743,0.152V79.53c0.328,0.075,0.859,0.075,1.339,0.075C55.816,79.63,58.089,77.725,58.089,73.689z
				 M67.99,74.015c0,3.31,1.566,5.64,4.141,5.64c2.602,0,4.091-2.456,4.091-5.74c0-3.034-1.464-5.64-4.116-5.64
				C69.506,68.275,67.99,70.732,67.99,74.015z"/>
		</g>
	</g>
</g>
<g id="Layer_1">
</g>
</svg>
