<?xml version="1.0" encoding="iso-8859-1"?>
<!-- Generator: Adobe Illustrator 19.1.0, SVG Export Plug-In . SVG Version: 6.00 Build 0)  -->
<svg version="1.1" xmlns="http://www.w3.org/2000/svg" xmlns:xlink="http://www.w3.org/1999/xlink" x="0px" y="0px"
	 viewBox="0 0 146.996 147" style="enable-background:new 0 0 146.996 147;" xml:space="preserve">
<g id="event_x5F_timeline_x5F_read">
	<g id="shape_42_">
		<g>
			<circle style="fill:#FFFFFF;" cx="73.498" cy="73.5" r="72.5"/>
		</g>
		<g>
			<circle style="fill:none;stroke:#F1592B;stroke-width:2;stroke-miterlimit:10;" cx="73.498" cy="73.5" r="72.5"/>
		</g>
	</g>
	<g id="event_icon_6_">
		<g>
			<path style="fill:#F1592B;" d="M78.178,64.363c-1.908,0-3.452,1.544-3.452,3.452c0,1.905,1.544,3.451,3.452,3.451
				c1.905,0,3.452-1.546,3.452-3.451C81.631,65.907,80.087,64.363,78.178,64.363z M81.631,47.106H64.369v6.903h17.262V47.106z
				 M74.726,78.17c0,1.904,1.547,3.451,3.452,3.451s3.452-1.547,3.452-3.451c0-1.908-1.544-3.454-3.452-3.454
				S74.726,76.261,74.726,78.17z M88.535,81.621c1.905,0,3.452-1.547,3.452-3.451c0-1.908-1.544-3.452-3.452-3.452
				c-1.908,0-3.452,1.543-3.452,3.452C85.083,80.073,86.63,81.621,88.535,81.621z M88.535,54.009c1.905,0,3.452-1.547,3.452-3.452
				v-6.903c0-1.907-1.548-3.452-3.452-3.452c-1.908,0-3.452,1.545-3.452,3.452v6.903C85.083,52.462,86.63,54.009,88.535,54.009z
				 M88.535,71.266c1.905,0,3.452-1.546,3.452-3.451c0-1.908-1.544-3.452-3.452-3.452c-1.908,0-3.452,1.544-3.452,3.452
				C85.083,69.72,86.63,71.266,88.535,71.266z M67.821,71.266c1.906,0,3.452-1.546,3.452-3.451c0-1.908-1.547-3.452-3.452-3.452
				c-1.906,0-3.452,1.544-3.452,3.452C64.369,69.72,65.916,71.266,67.821,71.266z M57.464,81.621c1.906,0,3.452-1.547,3.452-3.451
				c0-1.908-1.547-3.454-3.452-3.454c-1.907,0-3.452,1.546-3.452,3.454C54.012,80.073,55.559,81.621,57.464,81.621z M57.464,71.266
				c1.906,0,3.452-1.546,3.452-3.451c0-1.908-1.547-3.452-3.452-3.452c-1.907,0-3.452,1.544-3.452,3.452
				C54.012,69.72,55.559,71.266,57.464,71.266z M57.464,91.975c1.906,0,3.452-1.547,3.452-3.451c0-1.908-1.547-3.452-3.452-3.452
				c-1.907,0-3.452,1.544-3.452,3.452C54.012,90.428,55.559,91.975,57.464,91.975z M67.821,81.621c1.906,0,3.452-1.547,3.452-3.451
				c0-1.908-1.545-3.454-3.452-3.454c-1.907,0-3.452,1.546-3.452,3.454C64.369,80.073,65.916,81.621,67.821,81.621z M98.892,47.106
				H95.44v6.903h3.452v44.87H47.108v-44.87h3.452v-6.903h-3.452c-3.813,0-6.905,3.089-6.905,6.903v44.868
				c0,3.814,3.091,6.904,6.905,6.904h51.784c3.813,0,6.905-3.091,6.905-6.904V54.009C105.797,50.195,102.705,47.106,98.892,47.106z
				 M57.464,54.009c1.906,0,3.452-1.547,3.452-3.452v-6.903c0-1.907-1.545-3.452-3.452-3.452c-1.906,0-3.452,1.545-3.452,3.452
				v6.903C54.012,52.462,55.559,54.009,57.464,54.009z M67.821,91.975c1.906,0,3.452-1.547,3.452-3.451
				c0-1.908-1.547-3.452-3.452-3.452c-1.906,0-3.452,1.544-3.452,3.452C64.369,90.428,65.916,91.975,67.821,91.975z"/>
		</g>
	</g>
</g>
<g id="Layer_1">
</g>
</svg>
