<?xml version="1.0" encoding="iso-8859-1"?>
<!-- Generator: Adobe Illustrator 19.1.0, SVG Export Plug-In . SVG Version: 6.00 Build 0)  -->
<svg version="1.1" xmlns="http://www.w3.org/2000/svg" xmlns:xlink="http://www.w3.org/1999/xlink" x="0px" y="0px"
	 viewBox="0 0 144.996 145" style="enable-background:new 0 0 144.996 145;" xml:space="preserve">
<g id="event_x5F_timeline_x5F_unread">
	<g id="shape_40_">
		<g>
			<circle style="fill:#F1592B;" cx="72.498" cy="72.5" r="72.5"/>
		</g>
	</g>
	<g id="event_icon_4_">
		<g>
			<path style="fill:#FFFFFF;" d="M80.631,46.106H63.369v6.903h17.262V46.106z M66.821,70.266c1.906,0,3.452-1.546,3.452-3.451
				c0-1.908-1.547-3.452-3.452-3.452c-1.906,0-3.452,1.544-3.452,3.452C63.369,68.72,64.916,70.266,66.821,70.266z M73.726,77.17
				c0,1.904,1.547,3.451,3.452,3.451s3.452-1.547,3.452-3.451c0-1.908-1.544-3.454-3.452-3.454S73.726,75.261,73.726,77.17z
				 M77.178,63.363c-1.908,0-3.452,1.544-3.452,3.452c0,1.905,1.544,3.451,3.452,3.451c1.905,0,3.452-1.546,3.452-3.451
				C80.631,64.907,79.087,63.363,77.178,63.363z M97.892,46.106H94.44v6.903h3.452v44.87H46.108v-44.87h3.452v-6.903h-3.452
				c-3.813,0-6.905,3.089-6.905,6.903v44.868c0,3.814,3.091,6.904,6.905,6.904h51.784c3.813,0,6.905-3.091,6.905-6.904V53.009
				C104.797,49.195,101.705,46.106,97.892,46.106z M87.535,80.621c1.905,0,3.452-1.547,3.452-3.451c0-1.908-1.544-3.452-3.452-3.452
				c-1.908,0-3.452,1.543-3.452,3.452C84.083,79.073,85.63,80.621,87.535,80.621z M87.535,70.266c1.905,0,3.452-1.546,3.452-3.451
				c0-1.908-1.544-3.452-3.452-3.452c-1.908,0-3.452,1.544-3.452,3.452C84.083,68.72,85.63,70.266,87.535,70.266z M87.535,53.009
				c1.905,0,3.452-1.547,3.452-3.452v-6.903c0-1.907-1.548-3.452-3.452-3.452c-1.908,0-3.452,1.545-3.452,3.452v6.903
				C84.083,51.462,85.63,53.009,87.535,53.009z M56.464,80.621c1.906,0,3.452-1.547,3.452-3.451c0-1.908-1.547-3.454-3.452-3.454
				c-1.907,0-3.452,1.546-3.452,3.454C53.012,79.073,54.559,80.621,56.464,80.621z M66.821,80.621c1.906,0,3.452-1.547,3.452-3.451
				c0-1.908-1.545-3.454-3.452-3.454c-1.907,0-3.452,1.546-3.452,3.454C63.369,79.073,64.916,80.621,66.821,80.621z M56.464,90.975
				c1.906,0,3.452-1.547,3.452-3.451c0-1.908-1.547-3.452-3.452-3.452c-1.907,0-3.452,1.544-3.452,3.452
				C53.012,89.428,54.559,90.975,56.464,90.975z M56.464,70.266c1.906,0,3.452-1.546,3.452-3.451c0-1.908-1.547-3.452-3.452-3.452
				c-1.907,0-3.452,1.544-3.452,3.452C53.012,68.72,54.559,70.266,56.464,70.266z M56.464,53.009c1.906,0,3.452-1.547,3.452-3.452
				v-6.903c0-1.907-1.545-3.452-3.452-3.452c-1.906,0-3.452,1.545-3.452,3.452v6.903C53.012,51.462,54.559,53.009,56.464,53.009z
				 M66.821,90.975c1.906,0,3.452-1.547,3.452-3.451c0-1.908-1.547-3.452-3.452-3.452c-1.906,0-3.452,1.544-3.452,3.452
				C63.369,89.428,64.916,90.975,66.821,90.975z"/>
		</g>
	</g>
</g>
<g id="Layer_1">
</g>
</svg>
