<?xml version="1.0" encoding="iso-8859-1"?>
<!-- Generator: Adobe Illustrator 19.1.0, SVG Export Plug-In . SVG Version: 6.00 Build 0)  -->
<svg version="1.1" xmlns="http://www.w3.org/2000/svg" xmlns:xlink="http://www.w3.org/1999/xlink" x="0px" y="0px"
	 viewBox="0 0 145.01 145" style="enable-background:new 0 0 145.01 145;" xml:space="preserve">
<g id="feedback_x5F_unread">
	<g id="shape_34_">
		<g>
			<path style="fill:#488FCC;" d="M72.505,144.75c-39.841,0-72.255-32.411-72.255-72.25S32.664,0.25,72.505,0.25
				c39.842,0,72.255,32.411,72.255,72.25S112.347,144.75,72.505,144.75z"/>
		</g>
		<g>
			<path style="fill:#488FCC;" d="M72.505,0.5c39.704,0,72.005,32.299,72.005,72s-32.301,72-72.005,72S0.5,112.201,0.5,72.5
				S32.801,0.5,72.505,0.5 M72.505,0C32.461,0,0,32.459,0,72.5C0,112.54,32.461,145,72.505,145c40.043,0,72.505-32.46,72.505-72.5
				C145.01,32.459,112.548,0,72.505,0L72.505,0z"/>
		</g>
	</g>
	<g id="feedback_icon_2_">
		<g>
			<path style="fill:#FFFFFF;" d="M80.726,98.402H41.487V46.609h39.239v8.827l5.229-5.771v-2.961c0-2.911-2.384-5.273-5.326-5.273
				H41.583c-2.941,0-5.326,2.359-5.326,5.273v51.606c0,2.913,2.385,5.273,5.326,5.273h39.05c2.94,0,5.326-2.36,5.326-5.273V81.317
				l-5.233,5.774V98.402z M76.287,56.105c0-1.429-1.17-2.588-2.614-2.588H48.511c-1.442-0.002-2.614,1.158-2.614,2.588
				c0,1.429,1.172,2.588,2.614,2.588H73.67C75.117,58.694,76.287,57.534,76.287,56.105z M72.684,64.368H48.511
				c-1.444,0-2.614,1.16-2.614,2.588c0,1.431,1.172,2.591,2.614,2.591H67.99L72.684,64.368z M62.907,75.095H48.511
				c-1.444,0-2.614,1.16-2.614,2.59c0,1.428,1.172,2.589,2.614,2.589h11.433L62.907,75.095z M45.897,88.538
				c0,1.43,1.172,2.588,2.614,2.588h8.373c0.033-0.372,0.087-0.572,0.169-0.854l1.258-4.326h-9.801
				C47.069,85.949,45.897,87.108,45.897,88.538z M85.656,55.855L67.389,76.012l-1.412,1.559l10.057,8.931l1.411-1.559l18.266-20.158
				l1.647-1.82l-10.054-8.929L85.656,55.855z M84.786,64.96L72.808,78.178c-0.148,0.168-0.361,0.266-0.586,0.276
				c-0.225,0.013-0.446-0.063-0.611-0.211l-0.592-0.527c-0.348-0.312-0.377-0.838-0.066-1.183l11.979-13.22
				c0.15-0.167,0.359-0.267,0.585-0.279c0.222-0.01,0.444,0.064,0.61,0.214l0.591,0.529C85.073,64.083,85.098,64.615,84.786,64.96z
				 M88.268,58.678l0.594,0.527c0.346,0.309,0.376,0.839,0.063,1.184l-0.152,0.168l-0.855,0.944l-0.036,0.039
				c-0.148,0.167-0.359,0.266-0.585,0.277c-0.226,0.013-0.443-0.063-0.61-0.214l-0.596-0.527c-0.169-0.147-0.266-0.357-0.279-0.578
				c-0.013-0.223,0.066-0.442,0.218-0.606l1.041-1.149C87.383,58.398,87.919,58.367,88.268,58.678z M88.537,52.629l-0.756,0.835
				l10.054,8.93l0.76-0.84l1.709-1.886L90.25,50.741L88.537,52.629z M104.843,50.368l-5.698-5.063
				c-0.579-0.512-1.339-0.776-2.112-0.735c-0.773,0.042-1.504,0.386-2.019,0.958l-3.362,3.709l10.056,8.924l3.358-3.709
				c0.517-0.566,0.786-1.318,0.743-2.086C105.768,51.6,105.419,50.881,104.843,50.368z M101.502,54.446l-6.092-5.41l1.759-1.939
				l6.088,5.408L101.502,54.446z M63.268,92.52l11.559-4.687l-10.052-8.927l-3.458,11.884c-0.155,0.531,0.011,1.101,0.426,1.469
				C62.158,92.626,62.75,92.729,63.268,92.52z M65.695,82.079l5.839,5.189l-4.541,1.842l-2.658-2.36L65.695,82.079z"/>
		</g>
	</g>
</g>
<g id="Layer_1">
</g>
</svg>
