<?xml version="1.0" encoding="iso-8859-1"?>
<!-- Generator: Adobe Illustrator 19.1.0, SVG Export Plug-In . SVG Version: 6.00 Build 0)  -->
<svg version="1.1" xmlns="http://www.w3.org/2000/svg" xmlns:xlink="http://www.w3.org/1999/xlink" x="0px" y="0px"
	 viewBox="0 0 145 145" style="enable-background:new 0 0 145 145;" xml:space="preserve">
<g id="image_x5F_read">
	<g id="shape">
		<g>
			<path style="fill:#FFFFFF;" d="M72.5,144C33.075,144,1,111.926,1,72.5S33.075,1,72.5,1C111.925,1,144,33.075,144,72.5
				S111.925,144,72.5,144z"/>
		</g>
		<g>
			<path style="fill:#F1592B;" d="M72.5,2C111.374,2,143,33.626,143,72.5c0,38.874-31.626,70.5-70.5,70.5S2,111.374,2,72.5
				C2,33.626,33.626,2,72.5,2 M72.5,0C32.459,0,0,32.459,0,72.5C0,112.541,32.459,145,72.5,145c40.041,0,72.5-32.459,72.5-72.5
				C145,32.459,112.541,0,72.5,0L72.5,0z"/>
		</g>
	</g>
	<g id="picture_icon">
		<g>
			<path style="fill:#F1592B;" d="M72.874,62.506c-6.436,0-11.652,5.218-11.652,11.652c0,6.436,5.216,11.651,11.652,11.651
				c6.434,0,11.652-5.216,11.652-11.651C84.526,67.724,79.308,62.506,72.874,62.506z M103.945,50.854h-9.321
				c-1.282,0-2.663-0.994-3.068-2.21l-2.409-7.232c-0.406-1.216-1.786-2.21-3.068-2.21H59.668c-1.282,0-2.663,0.995-3.068,2.211
				l-2.409,7.232c-0.407,1.215-1.786,2.209-3.068,2.209h-9.321c-4.272,0-7.768,3.496-7.768,7.768v34.956
				c0,4.272,3.495,7.768,7.768,7.768h62.143c4.272,0,7.768-3.496,7.768-7.768V58.622C111.713,54.349,108.218,50.854,103.945,50.854z
				 M72.874,93.578c-10.725,0-19.42-8.695-19.42-19.419c0-10.725,8.694-19.419,19.42-19.419c10.723,0,19.42,8.695,19.42,19.419
				C92.294,84.882,83.597,93.578,72.874,93.578z M101.227,64.054c-1.5,0-2.719-1.217-2.719-2.719c0-1.501,1.218-2.719,2.719-2.719
				c1.502,0,2.719,1.218,2.719,2.719C103.945,62.837,102.729,64.054,101.227,64.054z"/>
		</g>
	</g>
</g>
<g id="Layer_1">
</g>
</svg>
