<?xml version="1.0" standalone="no"?>
<!DOCTYPE svg PUBLIC "-//W3C//DTD SVG 20010904//EN"
 "http://www.w3.org/TR/2001/REC-SVG-20010904/DTD/svg10.dtd">
<svg version="1.0" xmlns="http://www.w3.org/2000/svg"
 width="150.000000pt" height="150.000000pt" viewBox="0 0 150.000000 150.000000"
 preserveAspectRatio="xMidYMid meet">
<metadata>
Created by potrace 1.13, written by Peter Selinger 2001-2015
</metadata>
<g transform="translate(0.000000,150.000000) scale(0.100000,-0.100000)"
fill="#F1582D" stroke="#F1582D">
<path d="M625 1465 c-317 -58 -551 -306 -596 -629 -21 -152 20 -338 106 -471
151 -237 436 -373 701 -336 338 47 588 297 635 635 44 316 -156 648 -459 763
-131 50 -258 62 -387 38z m141 -479 c34 -34 44 -78 28 -120 -13 -33 -34 -17
-34 24 0 30 -7 47 -25 65 -28 29 -42 31 -73 9 -19 -13 -22 -24 -22 -75 0 -32
-4 -59 -9 -59 -19 0 -41 45 -41 83 0 54 52 107 105 107 29 0 45 -8 71 -34z
m-38 -38 c7 -7 12 -36 12 -66 0 -34 4 -51 10 -47 6 4 22 -1 36 -10 13 -9 28
-14 33 -11 4 3 17 -1 27 -9 10 -8 28 -15 39 -15 38 0 45 -19 45 -118 l0 -94
-39 -39 c-39 -39 -39 -39 -120 -39 -73 0 -85 3 -106 24 -32 32 -117 203 -113
228 5 35 34 46 68 26 l30 -17 0 87 c0 93 8 112 45 112 12 0 26 -5 33 -12z"/>
</g>
</svg>
