<?xml version="1.0" standalone="no"?>
<!DOCTYPE svg PUBLIC "-//W3C//DTD SVG 20010904//EN"
 "http://www.w3.org/TR/2001/REC-SVG-20010904/DTD/svg10.dtd">
<svg version="1.0" xmlns="http://www.w3.org/2000/svg"
 width="150.000000pt" height="150.000000pt" viewBox="0 0 150.000000 150.000000"
 preserveAspectRatio="xMidYMid meet">
<metadata>
Created by potrace 1.13, written by Peter Selinger 2001-2015
</metadata>
<g transform="translate(0.000000,150.000000) scale(0.100000,-0.100000)"
fill="#4355A5" stroke="#4355A5">
<path d="M625 1465 c-317 -58 -551 -306 -596 -629 -21 -152 20 -338 106 -471
151 -237 436 -373 701 -336 338 47 588 297 635 635 44 316 -156 648 -459 763
-131 50 -258 62 -387 38z m300 -30 c33 -8 98 -34 145 -57 69 -34 102 -58 176
-132 74 -74 98 -107 132 -176 58 -118 76 -194 76 -320 0 -126 -18 -202 -76
-320 -34 -69 -58 -102 -132 -176 -74 -74 -107 -98 -176 -132 -118 -58 -194
-76 -320 -76 -126 0 -202 18 -320 76 -69 34 -102 58 -176 132 -74 74 -98 107
-132 176 -58 118 -76 194 -76 320 0 126 18 202 76 320 34 69 58 102 132 175
119 118 214 170 371 201 82 16 213 11 300 -11z"/>
<path d="M667 944 c-4 -4 -7 -52 -7 -106 0 -54 -3 -98 -8 -98 -4 0 -13 9 -20
21 -18 28 -66 23 -70 -8 -4 -24 78 -193 108 -223 17 -17 34 -20 99 -20 71 0
83 3 110 26 36 30 51 77 51 160 0 63 -11 84 -45 84 -11 0 -28 7 -38 15 -11 7
-25 11 -33 8 -7 -3 -21 2 -30 11 -9 10 -24 14 -35 11 -16 -5 -18 1 -21 57 -3
59 -5 63 -28 66 -14 2 -29 0 -33 -4z"/>
</g>
</svg>
