<?xml version="1.0" standalone="no"?>
<!DOCTYPE svg PUBLIC "-//W3C//DTD SVG 20010904//EN"
 "http://www.w3.org/TR/2001/REC-SVG-20010904/DTD/svg10.dtd">
<svg version="1.0" xmlns="http://www.w3.org/2000/svg"
 width="150.000000pt" height="150.000000pt" viewBox="0 0 150.000000 150.000000"
 preserveAspectRatio="xMidYMid meet">
<metadata>
Created by potrace 1.13, written by Peter Selinger 2001-2015
</metadata>
<g transform="translate(0.000000,150.000000) scale(0.100000,-0.100000)"
fill="#EF4681" stroke="#EF4681">
<path d="M625 1465 c-317 -58 -551 -306 -596 -629 -21 -152 20 -338 106 -471
151 -237 436 -373 701 -336 338 47 588 297 635 635 44 316 -156 648 -459 763
-131 50 -258 62 -387 38z m141 -479 c27 -27 34 -42 34 -73 0 -36 -13 -63 -32
-63 -4 0 -8 18 -8 40 0 30 -7 47 -25 65 -28 29 -42 31 -73 9 -19 -13 -22 -24
-22 -75 0 -64 -9 -73 -34 -34 -43 66 10 165 89 165 29 0 45 -8 71 -34z m-38
-38 c7 -7 12 -36 12 -66 0 -34 4 -51 10 -47 6 4 22 0 35 -9 13 -9 33 -16 44
-16 11 0 23 -4 26 -10 3 -5 16 -10 29 -10 39 0 46 -18 46 -117 l0 -93 -40 -40
-40 -40 -80 0 c-72 0 -84 3 -105 24 -28 28 -115 197 -115 224 0 42 47 55 80
22 20 -20 20 -20 20 73 0 98 7 117 45 117 12 0 26 -5 33 -12z"/>
</g>
</svg>
