<?xml version="1.0" standalone="no"?>
<!DOCTYPE svg PUBLIC "-//W3C//DTD SVG 20010904//EN"
 "http://www.w3.org/TR/2001/REC-SVG-20010904/DTD/svg10.dtd">
<svg version="1.0" xmlns="http://www.w3.org/2000/svg"
 width="150.000000pt" height="150.000000pt" viewBox="0 0 150.000000 150.000000"
 preserveAspectRatio="xMidYMid meet">
<metadata>
Created by potrace 1.13, written by Peter Selinger 2001-2015
</metadata>
<g transform="translate(0.000000,150.000000) scale(0.100000,-0.100000)"
>
<path style="fill:#4355A5;" d="M625 1465 c-317 -58 -551 -306 -596 -629 -21 -152 20 -338 106 -471
151 -237 436 -373 701 -336 338 47 588 297 635 635 44 316 -156 648 -459 763
-131 50 -258 62 -387 38z m298 -31 c226 -58 417 -234 493 -453 54 -156 54
-306 0 -462 -37 -105 -82 -175 -171 -264 -124 -123 -245 -183 -414 -206 -141
-19 -310 17 -439 93 -73 43 -208 178 -250 250 -77 130 -113 301 -94 438 25
172 85 293 207 415 91 90 160 135 264 171 131 46 273 52 404 18z"/>
<path style="fill:#EF4681;" d="M677 949 c-14 -8 -17 -26 -17 -111 l0 -101 -24 22 c-30 28 -70 25
-74 -5 -4 -28 85 -211 112 -229 13 -10 46 -15 97 -15 63 0 81 4 104 22 39 30
55 76 55 156 0 70 -10 92 -42 92 -10 0 -29 7 -42 15 -13 9 -28 15 -32 13 -5
-1 -19 3 -31 10 -12 7 -28 11 -35 10 -9 -2 -14 14 -16 54 -3 63 -22 85 -55 67z"/>
</g>
</svg>
