<?xml version="1.0" standalone="no"?>
<!DOCTYPE svg PUBLIC "-//W3C//DTD SVG 20010904//EN"
 "http://www.w3.org/TR/2001/REC-SVG-20010904/DTD/svg10.dtd">
<svg version="1.0" xmlns="http://www.w3.org/2000/svg"
 width="150.000000pt" height="150.000000pt" viewBox="0 0 150.000000 150.000000"
 preserveAspectRatio="xMidYMid meet">
<metadata>
Created by potrace 1.13, written by Peter Selinger 2001-2015
</metadata>
<g transform="translate(0.000000,150.000000) scale(0.100000,-0.100000)"
fill="#4355A5" stroke="#4355A5">
<path d="M625 1465 c-317 -58 -551 -306 -596 -629 -21 -152 20 -338 106 -471
151 -237 436 -373 701 -336 338 47 588 297 635 635 44 316 -156 648 -459 763
-131 50 -258 62 -387 38z m148 -485 c29 -32 35 -76 17 -111 -18 -32 -30 -21
-30 26 0 77 -57 109 -107 59 -22 -22 -25 -32 -21 -75 6 -56 -4 -63 -27 -19
-21 41 -19 83 6 114 44 55 115 58 162 6z m-45 -32 c7 -7 12 -36 12 -65 0 -50
2 -53 24 -53 14 0 28 -4 31 -10 3 -5 17 -10 30 -10 13 0 27 -4 30 -10 3 -5 16
-10 29 -10 38 0 46 -19 46 -107 0 -140 -39 -183 -166 -183 -64 0 -74 3 -98 26
-28 29 -116 200 -116 227 0 16 28 37 49 37 6 0 20 -9 31 -20 20 -20 20 -20 20
73 0 98 7 117 45 117 12 0 26 -5 33 -12z"/>
</g>
</svg>
