<?xml version="1.0" encoding="iso-8859-1"?>
<!-- Generator: Adobe Illustrator 19.1.0, SVG Export Plug-In . SVG Version: 6.00 Build 0)  -->
<svg version="1.1" xmlns="http://www.w3.org/2000/svg" xmlns:xlink="http://www.w3.org/1999/xlink" x="0px" y="0px"
	 viewBox="0 0 145.01 145" style="enable-background:new 0 0 145.01 145;" xml:space="preserve">
<g id="live_x5F_stream_x5F_unread">
	<g id="shape_38_">
		<g>
			<path style="fill:#488FCC;" d="M72.505,144.75c-39.841,0-72.255-32.411-72.255-72.25S32.664,0.25,72.505,0.25
				c39.842,0,72.255,32.411,72.255,72.25S112.347,144.75,72.505,144.75z"/>
		</g>
		<g>
			<path style="fill:#488FCC;" d="M72.505,0.5c39.704,0,72.005,32.299,72.005,72s-32.301,72-72.005,72S0.5,112.201,0.5,72.5
				S32.801,0.5,72.505,0.5 M72.505,0C32.461,0,0,32.459,0,72.5C0,112.54,32.461,145,72.505,145c40.043,0,72.505-32.46,72.505-72.5
				C145.01,32.459,112.548,0,72.505,0L72.505,0z"/>
		</g>
	</g>
	<path style="fill:#FFFFFF;" d="M105.447,112.379H39.563c-4.013,0-7.267-3.253-7.267-7.267v0c0-4.013,3.253-7.267,7.267-7.267
		h65.884c4.013,0,7.267,3.253,7.267,7.267v0C112.714,109.125,109.46,112.379,105.447,112.379z"/>
	<circle style="fill:#488FCC;stroke:#488FCC;stroke-miterlimit:10;" cx="72.505" cy="71.232" r="33.611"/>
	<circle style="fill:#FFFFFF;" cx="72.505" cy="66.232" r="33.611"/>
	<circle style="fill:#FFFFFF;stroke:#478FCD;stroke-miterlimit:10;" cx="72.505" cy="66.232" r="12.111"/>
</g>
<g id="Layer_1">
</g>
</svg>
