<?xml version="1.0" encoding="iso-8859-1"?>
<!-- Generator: Adobe Illustrator 19.1.0, SVG Export Plug-In . SVG Version: 6.00 Build 0)  -->
<svg version="1.1" xmlns="http://www.w3.org/2000/svg" xmlns:xlink="http://www.w3.org/1999/xlink" x="0px" y="0px"
	 viewBox="0 0 145.009 145" style="enable-background:new 0 0 145.009 145;" xml:space="preserve">
<g id="pdf_x5F_read">
	<g id="shape_12_">
		<g>
			<path style="fill:#FFFFFF;" d="M72.504,144C33.077,144,1,111.925,1,72.5C1,33.075,33.077,1,72.504,1
				c39.427,0,71.504,32.075,71.504,71.5C144.009,111.925,111.932,144,72.504,144z"/>
		</g>
		<g>
			<path style="fill:#F1592B;" d="M72.505,2c38.876,0,70.505,31.626,70.505,70.5c0,38.874-31.628,70.5-70.505,70.5S2,111.374,2,72.5
				C2,33.626,33.628,2,72.505,2 M72.505,0C32.461,0,0,32.46,0,72.5C0,112.541,32.461,145,72.505,145
				c40.043,0,72.505-32.459,72.505-72.5C145.009,32.46,112.548,0,72.505,0L72.505,0z"/>
		</g>
	</g>
	<g id="pdf_icon">
		<g>
			<path style="fill:#F1592B;" d="M57.739,71.529c0-1.673-1.166-2.672-3.224-2.672c-0.84,0-1.408,0.081-1.706,0.162v5.373
				c0.352,0.081,0.786,0.107,1.38,0.107C56.384,74.5,57.739,73.393,57.739,71.529z M70.476,68.911c-0.922,0-1.517,0.082-1.87,0.162
				V80.98c0.353,0.082,0.922,0.082,1.437,0.082c3.738,0.026,6.177-2.026,6.177-6.373C76.246,70.908,74.024,68.911,70.476,68.911z
				 M95.377,61.416h-1.497v-7.2c0-0.045-0.007-0.09-0.013-0.136c-0.002-0.286-0.094-0.566-0.29-0.789L81.552,39.603
				c-0.004-0.004-0.007-0.005-0.009-0.009c-0.072-0.079-0.155-0.146-0.244-0.203c-0.026-0.018-0.053-0.032-0.08-0.048
				c-0.076-0.041-0.158-0.076-0.241-0.101c-0.023-0.007-0.043-0.016-0.066-0.022c-0.091-0.02-0.185-0.034-0.281-0.034h-29.55
				c-1.349,0-2.446,1.093-2.446,2.437v19.792h-1.497c-1.93,0-3.496,1.559-3.496,3.483v18.114c0,1.922,1.565,3.483,3.496,3.483h1.497
				v12.401c0,1.343,1.096,2.437,2.446,2.437h40.353c1.348,0,2.446-1.095,2.446-2.437v-12.4h1.497c1.93,0,3.495-1.56,3.495-3.483
				V64.899C98.872,62.974,97.306,61.416,95.377,61.416z M51.081,41.623h28.328v12.469c0,0.673,0.548,1.218,1.223,1.218h10.802v6.106
				H51.081V41.623z M81.103,74.053c0,3.484-1.273,5.886-3.037,7.372c-1.921,1.592-4.848,2.349-8.423,2.349
				c-2.14,0-3.657-0.136-4.688-0.27V65.629c1.517-0.242,3.496-0.377,5.582-0.377c3.466,0,5.715,0.622,7.477,1.944
				C79.91,68.6,81.103,70.84,81.103,74.053z M49.212,83.585V65.629c1.273-0.215,3.062-0.377,5.581-0.377
				c2.546,0,4.362,0.486,5.581,1.459c1.165,0.917,1.949,2.43,1.949,4.212c0,1.781-0.594,3.294-1.679,4.32
				c-1.409,1.323-3.495,1.917-5.934,1.917c-0.541,0-1.03-0.027-1.408-0.081v6.507H49.212z M91.433,98.235H51.081v-11.74h40.353
				V98.235z M94.977,68.761h-7.019v4.157h6.557v3.349h-6.557v7.316h-4.143V65.387h11.162V68.761z"/>
		</g>
	</g>
</g>
<g id="Layer_1">
</g>
</svg>
