<?xml version="1.0" encoding="iso-8859-1"?>
<!-- Generator: Adobe Illustrator 19.1.0, SVG Export Plug-In . SVG Version: 6.00 Build 0)  -->
<svg version="1.1" xmlns="http://www.w3.org/2000/svg" xmlns:xlink="http://www.w3.org/1999/xlink" x="0px" y="0px"
	 viewBox="0 0 150 150" style="enable-background:new 0 0 150 150;" xml:space="preserve">
<g id="image_x5F_read" style="display:none;">
	<g id="shape" style="display:inline;">
		<g>
			<path style="fill:#FFFFFF;" d="M75,146.5c-39.425,0-71.5-32.074-71.5-71.5S35.575,3.5,75,3.5c39.425,0,71.5,32.075,71.5,71.5
				S114.425,146.5,75,146.5z"/>
		</g>
		<g>
			<path style="fill:#4655A5;" d="M75,4.5c38.874,0,70.5,31.626,70.5,70.5c0,38.874-31.626,70.5-70.5,70.5S4.5,113.874,4.5,75
				C4.5,36.126,36.126,4.5,75,4.5 M75,2.5C34.959,2.5,2.5,34.959,2.5,75c0,40.041,32.459,72.5,72.5,72.5
				c40.041,0,72.5-32.459,72.5-72.5C147.5,34.959,115.041,2.5,75,2.5L75,2.5z"/>
		</g>
	</g>
	<g id="picture_icon" style="display:inline;">
		<g>
			<path style="fill:#EF4681;" d="M106.945,53.854h-9.321c-1.282,0-2.663-0.994-3.068-2.21l-2.409-7.232
				c-0.406-1.216-1.786-2.21-3.068-2.21H62.668c-1.282,0-2.663,0.995-3.068,2.211l-2.409,7.232
				c-0.407,1.215-1.786,2.209-3.068,2.209h-9.321c-4.272,0-7.768,3.496-7.768,7.768v34.956c0,4.272,3.495,7.768,7.768,7.768h62.143
				c4.272,0,7.768-3.496,7.768-7.768V61.622C114.713,57.349,111.218,53.854,106.945,53.854z M75.874,96.578
				c-10.725,0-19.42-8.695-19.42-19.419c0-10.725,8.694-19.419,19.42-19.419c10.723,0,19.42,8.695,19.42,19.419
				C95.294,87.882,86.597,96.578,75.874,96.578z M104.227,67.054c-1.5,0-2.719-1.217-2.719-2.719c0-1.501,1.218-2.719,2.719-2.719
				c1.502,0,2.719,1.218,2.719,2.719C106.945,65.837,105.729,67.054,104.227,67.054z M75.874,65.506
				c-6.436,0-11.652,5.218-11.652,11.652c0,6.436,5.216,11.651,11.652,11.651c6.434,0,11.652-5.216,11.652-11.651
				C87.526,70.724,82.308,65.506,75.874,65.506z"/>
		</g>
	</g>
</g>
<g id="image_x5F_unread" style="display:none;">
	<g id="shape_2_" style="display:inline;">
		<g>
			<path style="fill:#EF4781;" d="M75,147.25c-39.839,0-72.25-32.411-72.25-72.25C2.75,35.162,35.161,2.75,75,2.75
				S147.25,35.162,147.25,75C147.25,114.839,114.839,147.25,75,147.25z"/>
		</g>
		<g>
			<path style="fill:#EF4781;" d="M75,3c39.701,0,72,32.299,72,72c0,39.701-32.299,72-72,72S3,114.701,3,75C3,35.299,35.299,3,75,3
				 M75,2.5C34.959,2.5,2.5,34.959,2.5,75c0,40.041,32.459,72.5,72.5,72.5c40.041,0,72.5-32.459,72.5-72.5
				C147.5,34.959,115.041,2.5,75,2.5L75,2.5z"/>
		</g>
	</g>
	<g id="picture_icon_2_" style="display:inline;">
		<g>
			<path style="fill:#FFFFFF;" d="M75.874,65.506c-6.436,0-11.652,5.218-11.652,11.652c0,6.436,5.216,11.651,11.652,11.651
				c6.434,0,11.652-5.216,11.652-11.651C87.526,70.724,82.308,65.506,75.874,65.506z M106.945,53.854h-9.321
				c-1.282,0-2.663-0.994-3.068-2.21l-2.409-7.232c-0.406-1.216-1.786-2.21-3.068-2.21H62.668c-1.282,0-2.663,0.995-3.068,2.211
				l-2.409,7.232c-0.407,1.215-1.786,2.209-3.068,2.209h-9.321c-4.272,0-7.768,3.496-7.768,7.768v34.956
				c0,4.272,3.495,7.768,7.768,7.768h62.143c4.272,0,7.768-3.496,7.768-7.768V61.622C114.713,57.349,111.218,53.854,106.945,53.854z
				 M75.874,96.578c-10.725,0-19.42-8.695-19.42-19.419c0-10.725,8.694-19.419,19.42-19.419c10.723,0,19.42,8.695,19.42,19.419
				C95.294,87.882,86.597,96.578,75.874,96.578z M104.227,67.054c-1.5,0-2.719-1.217-2.719-2.719c0-1.501,1.218-2.719,2.719-2.719
				c1.502,0,2.719,1.218,2.719,2.719C106.945,65.837,105.729,67.054,104.227,67.054z"/>
		</g>
	</g>
</g>
<g id="video_x5F_read" style="display:none;">
	<g id="shape_4_" style="display:inline;">
		<g>
			<path style="fill:#FFFFFF;" d="M75,146.5c-39.422,0-71.495-32.074-71.495-71.5S35.578,3.5,75,3.5
				c39.423,0,71.495,32.075,71.495,71.5S114.423,146.5,75,146.5z"/>
		</g>
		<g>
			<path style="fill:#4655A5;" d="M75,4.5c38.871,0,70.495,31.626,70.495,70.501c0,38.874-31.624,70.499-70.495,70.499
				S4.505,113.874,4.505,75.001C4.505,36.126,36.129,4.5,75,4.5 M75,2.5C34.962,2.5,2.505,34.959,2.505,75.001
				c0,40.04,32.457,72.499,72.495,72.499c40.038,0,72.495-32.459,72.495-72.499C147.495,34.959,115.038,2.5,75,2.5L75,2.5z"/>
		</g>
	</g>
	<g id="video_icon" style="display:inline;">
		<g>
			<path style="fill:#EF4681;" d="M105.094,70.557l-13.267,8.875c0-2.693-1.22-5.077-3.109-6.705
				c4.496-2.719,7.531-7.614,7.531-13.265c0-8.577-6.93-15.531-15.478-15.531c-8.549,0-15.479,6.953-15.479,15.531
				c0,4.352,1.793,8.275,4.668,11.095h-8.111c2.118-2.359,3.443-5.449,3.443-8.876c0-7.353-5.939-13.313-13.268-13.313
				c-7.328,0-13.267,5.961-13.267,13.313c0,4.012,1.806,7.566,4.604,10.007c-2.731,1.511-4.604,4.394-4.604,7.744v17.75
				c0,4.901,3.96,8.875,8.845,8.875h35.381c4.884,0,8.845-3.974,8.845-8.875l13.267,8.875c2.444,0,4.423-1.985,4.423-4.438V74.994
				C109.518,72.542,107.538,70.557,105.094,70.557z M52.023,70.557c-4.884,0-8.845-3.975-8.845-8.876
				c0-4.901,3.96-8.875,8.845-8.875c4.885,0,8.845,3.975,8.845,8.875C60.868,66.582,56.908,70.557,52.023,70.557z M80.771,70.581
				c-6.121,0-11.081-4.979-11.081-11.12c0-6.14,4.962-11.119,11.081-11.119c6.118,0,11.08,4.978,11.08,11.119
				C91.85,65.605,86.891,70.581,80.771,70.581z"/>
		</g>
	</g>
</g>
<g id="video_x5F_unread" style="display:none;">
	<g id="shape_6_" style="display:inline;">
		<g>
			<path style="fill:#EF4781;" d="M75,147.25c-39.836,0-72.245-32.411-72.245-72.25C2.755,35.162,35.164,2.75,75,2.75
				S147.245,35.162,147.245,75C147.245,114.839,114.836,147.25,75,147.25z"/>
		</g>
		<g>
			<path style="fill:#EF4781;" d="M75,3c39.698,0,71.995,32.299,71.995,72.001C146.995,114.701,114.698,147,75,147
				S3.005,114.701,3.005,75.001C3.005,35.299,35.302,3,75,3 M75,2.5C34.962,2.5,2.505,34.959,2.505,75.001
				c0,40.04,32.457,72.499,72.495,72.499c40.038,0,72.495-32.459,72.495-72.499C147.495,34.959,115.038,2.5,75,2.5L75,2.5z"/>
		</g>
	</g>
	<g id="video_icon_2_" style="display:inline;">
		<g>
			<path style="fill:#FFFFFF;" d="M105.094,70.557l-13.267,8.875c0-2.693-1.22-5.077-3.109-6.705
				c4.496-2.719,7.531-7.614,7.531-13.265c0-8.577-6.93-15.531-15.478-15.531c-8.549,0-15.479,6.953-15.479,15.531
				c0,4.352,1.793,8.275,4.668,11.095h-8.111c2.118-2.359,3.443-5.449,3.443-8.876c0-7.353-5.939-13.313-13.268-13.313
				c-7.328,0-13.267,5.961-13.267,13.313c0,4.012,1.806,7.566,4.604,10.007c-2.731,1.511-4.604,4.394-4.604,7.744v17.75
				c0,4.901,3.96,8.875,8.845,8.875h35.381c4.884,0,8.845-3.974,8.845-8.875l13.267,8.875c2.444,0,4.423-1.985,4.423-4.438V74.994
				C109.518,72.542,107.538,70.557,105.094,70.557z M52.023,70.557c-4.884,0-8.845-3.975-8.845-8.876
				c0-4.901,3.96-8.875,8.845-8.875c4.885,0,8.845,3.975,8.845,8.875C60.868,66.582,56.908,70.557,52.023,70.557z M80.771,70.581
				c-6.121,0-11.081-4.979-11.081-11.12c0-6.14,4.962-11.119,11.081-11.119c6.118,0,11.08,4.978,11.08,11.119
				C91.85,65.605,86.891,70.581,80.771,70.581z"/>
		</g>
	</g>
</g>
<g id="audio_x5F_read" style="display:none;">
	<g id="shape_8_" style="display:inline;">
		<g>
			<path style="fill:#FFFFFF;" d="M75,146.5c-39.428,0-71.505-32.075-71.505-71.5C3.495,35.575,35.572,3.5,75,3.5
				s71.505,32.075,71.505,71.5C146.505,114.425,114.428,146.5,75,146.5z"/>
		</g>
		<g>
			<path style="fill:#4655A5;" d="M75,4.5c38.877,0,70.505,31.626,70.505,70.5c0,38.874-31.628,70.5-70.505,70.5
				S4.495,113.874,4.495,75C4.495,36.126,36.123,4.5,75,4.5 M75,2.5C34.956,2.5,2.495,34.959,2.495,75S34.956,147.5,75,147.5
				c40.043,0,72.505-32.46,72.505-72.5S115.043,2.5,75,2.5L75,2.5z"/>
		</g>
	</g>
	<g id="audio_icon" style="display:inline;">
		<g>
			<path style="fill:#EF4681;" d="M55.523,75.288c-1.479,0-2.675,1.221-2.675,2.728v25.317c0,1.508,1.196,2.728,2.675,2.728
				c1.477,0,2.675-1.22,2.675-2.728V78.016C58.199,76.511,57,75.288,55.523,75.288z M104.157,75.056
				c-0.284-17.226-14.029-31.155-30.891-31.155c-16.868,0-30.614,13.93-30.896,31.162c-3.091,0.948-5.351,3.952-5.351,7.518v15.673
				c0,4.327,3.327,7.837,7.431,7.837h5.891V76.034c0.016-0.143,0.042-0.286,0.042-0.434c0-12.967,10.265-23.514,22.882-23.514
				c12.614,0,22.881,10.548,22.881,23.514c0,0.199,0.027,0.39,0.057,0.582v29.91h5.89c4.101,0,7.429-3.509,7.429-7.837V82.58
				C109.522,79.01,107.255,76.003,104.157,75.056z M91.022,75.288c-1.479,0-2.676,1.221-2.676,2.728v25.317
				c0,1.508,1.198,2.728,2.676,2.728c1.477,0,2.675-1.22,2.675-2.728V78.016C93.697,76.511,92.499,75.288,91.022,75.288z"/>
		</g>
	</g>
</g>
<g id="audio_x5F_unread" style="display:none;">
	<g id="shape_10_" style="display:inline;">
		<g>
			<path style="fill:#EF4781;" d="M75,147.25c-39.841,0-72.255-32.411-72.255-72.25C2.745,35.161,35.159,2.75,75,2.75
				c39.842,0,72.255,32.411,72.255,72.25C147.255,114.839,114.842,147.25,75,147.25z"/>
		</g>
		<g>
			<path style="fill:#EF4781;" d="M75,3c39.704,0,72.005,32.299,72.005,72c0,39.701-32.301,72-72.005,72S2.995,114.701,2.995,75
				C2.995,35.299,35.296,3,75,3 M75,2.5C34.956,2.5,2.495,34.959,2.495,75S34.956,147.5,75,147.5c40.043,0,72.505-32.46,72.505-72.5
				S115.043,2.5,75,2.5L75,2.5z"/>
		</g>
	</g>
	<g id="audio_icon_2_" style="display:inline;">
		<g>
			<path style="fill:#FFFFFF;" d="M55.523,75.288c-1.479,0-2.675,1.221-2.675,2.728v25.317c0,1.508,1.196,2.728,2.675,2.728
				c1.477,0,2.675-1.22,2.675-2.728V78.016C58.199,76.511,57,75.288,55.523,75.288z M104.157,75.056
				c-0.284-17.226-14.029-31.155-30.891-31.155c-16.868,0-30.614,13.93-30.896,31.162c-3.091,0.948-5.351,3.952-5.351,7.518v15.673
				c0,4.327,3.327,7.837,7.431,7.837h5.891V76.034c0.016-0.143,0.042-0.286,0.042-0.434c0-12.967,10.265-23.514,22.882-23.514
				c12.614,0,22.881,10.548,22.881,23.514c0,0.199,0.027,0.39,0.057,0.582v29.91h5.89c4.101,0,7.429-3.509,7.429-7.837V82.58
				C109.522,79.01,107.255,76.003,104.157,75.056z M91.022,75.288c-1.479,0-2.676,1.221-2.676,2.728v25.317
				c0,1.508,1.198,2.728,2.676,2.728c1.477,0,2.675-1.22,2.675-2.728V78.016C93.697,76.511,92.499,75.288,91.022,75.288z"/>
		</g>
	</g>
</g>
<g id="pdf_x5F_read" style="display:none;">
	<g id="shape_12_" style="display:inline;">
		<g>
			<path style="fill:#FFFFFF;" d="M75,146.5c-39.428,0-71.504-32.075-71.504-71.5C3.496,35.575,35.572,3.5,75,3.5
				s71.505,32.075,71.505,71.5C146.505,114.425,114.428,146.5,75,146.5z"/>
		</g>
		<g>
			<path style="fill:#4655A5;" d="M75,4.5c38.876,0,70.505,31.626,70.505,70.5c0,38.874-31.628,70.5-70.505,70.5
				S4.495,113.874,4.495,75C4.495,36.126,36.124,4.5,75,4.5 M75,2.5C34.957,2.5,2.495,34.96,2.495,75
				c0,40.041,32.461,72.5,72.505,72.5c40.043,0,72.505-32.459,72.505-72.5C147.505,34.96,115.043,2.5,75,2.5L75,2.5z"/>
		</g>
	</g>
	<g id="pdf_icon" style="display:inline;">
		<g>
			<path style="fill:#EF4681;" d="M60.234,74.029c0-1.673-1.166-2.672-3.224-2.672c-0.84,0-1.408,0.081-1.706,0.162v5.373
				C55.656,76.973,56.09,77,56.684,77C58.88,77,60.234,75.893,60.234,74.029z M72.971,71.411c-0.922,0-1.517,0.082-1.87,0.162V83.48
				c0.353,0.082,0.922,0.082,1.437,0.082c3.738,0.026,6.177-2.026,6.177-6.373C78.742,73.408,76.519,71.411,72.971,71.411z
				 M97.377,64.416h-1.497v-7.2c0-0.045-0.007-0.09-0.013-0.136c-0.002-0.286-0.094-0.566-0.29-0.789L83.552,42.603
				c-0.004-0.004-0.007-0.005-0.009-0.009c-0.072-0.079-0.155-0.146-0.244-0.203c-0.026-0.018-0.053-0.032-0.08-0.048
				c-0.076-0.041-0.158-0.076-0.241-0.101c-0.023-0.007-0.043-0.016-0.066-0.022c-0.091-0.02-0.185-0.034-0.281-0.034h-29.55
				c-1.349,0-2.446,1.093-2.446,2.437v19.792h-1.497c-1.93,0-3.496,1.559-3.496,3.483v18.114c0,1.922,1.565,3.483,3.496,3.483h1.497
				v12.401c0,1.343,1.096,2.437,2.446,2.437h40.353c1.348,0,2.446-1.095,2.446-2.437v-12.4h1.497c1.93,0,3.495-1.56,3.495-3.483
				V67.899C100.872,65.974,99.306,64.416,97.377,64.416z M53.081,44.623h28.328v12.469c0,0.673,0.548,1.218,1.223,1.218h10.802
				v6.106H53.081V44.623z M83.103,77.053c0,3.484-1.273,5.886-3.037,7.372c-1.921,1.592-4.848,2.349-8.423,2.349
				c-2.14,0-3.657-0.136-4.688-0.27V68.629c1.517-0.242,3.496-0.377,5.582-0.377c3.466,0,5.715,0.622,7.477,1.944
				C81.91,71.6,83.103,73.84,83.103,77.053z M51.212,86.585V68.629c1.273-0.215,3.062-0.377,5.581-0.377
				c2.546,0,4.362,0.486,5.581,1.459c1.165,0.917,1.949,2.43,1.949,4.212c0,1.781-0.594,3.294-1.679,4.32
				c-1.409,1.323-3.495,1.917-5.934,1.917c-0.541,0-1.03-0.027-1.408-0.081v6.507H51.212z M93.433,101.235H53.081v-11.74h40.353
				V101.235z M96.977,71.761h-7.019v4.157h6.557v3.349h-6.557v7.316h-4.143V68.387h11.162V71.761z"/>
		</g>
	</g>
</g>
<g id="pdf_x5F_unread_1_" style="display:none;">
	<g id="shape_14_" style="display:inline;">
		<g>
			<path style="fill:#EF4781;" d="M75,147.25c-39.841,0-72.254-32.411-72.254-72.25C2.746,35.161,35.159,2.75,75,2.75
				c39.842,0,72.255,32.411,72.255,72.25C147.255,114.839,114.842,147.25,75,147.25z"/>
		</g>
		<g>
			<path style="fill:#EF4781;" d="M75,3c39.703,0,72.005,32.299,72.005,72c0,39.701-32.301,72-72.005,72S2.995,114.701,2.995,75
				C2.995,35.299,35.297,3,75,3 M75,2.5C34.957,2.5,2.495,34.96,2.495,75c0,40.041,32.461,72.5,72.505,72.5
				c40.043,0,72.505-32.459,72.505-72.5C147.505,34.96,115.043,2.5,75,2.5L75,2.5z"/>
		</g>
	</g>
	<g id="pdf_icon_2_" style="display:inline;">
		<g>
			<path style="fill:#FFFFFF;" d="M60.234,74.029c0-1.673-1.166-2.672-3.224-2.672c-0.84,0-1.408,0.081-1.706,0.162v5.373
				C55.656,76.973,56.09,77,56.684,77C58.88,77,60.234,75.893,60.234,74.029z M72.971,71.411c-0.922,0-1.517,0.082-1.87,0.162V83.48
				c0.353,0.082,0.922,0.082,1.437,0.082c3.738,0.026,6.177-2.026,6.177-6.373C78.742,73.408,76.519,71.411,72.971,71.411z
				 M97.377,64.416h-1.497v-7.2c0-0.045-0.007-0.09-0.013-0.136c-0.002-0.286-0.094-0.566-0.29-0.789L83.552,42.603
				c-0.004-0.004-0.007-0.005-0.009-0.009c-0.072-0.079-0.155-0.146-0.244-0.203c-0.026-0.018-0.053-0.032-0.08-0.048
				c-0.076-0.041-0.158-0.076-0.241-0.101c-0.023-0.007-0.043-0.016-0.066-0.022c-0.091-0.02-0.185-0.034-0.281-0.034h-29.55
				c-1.349,0-2.446,1.093-2.446,2.437v19.792h-1.497c-1.93,0-3.496,1.559-3.496,3.483v18.114c0,1.922,1.565,3.483,3.496,3.483h1.497
				v12.401c0,1.343,1.096,2.437,2.446,2.437h40.353c1.348,0,2.446-1.095,2.446-2.437v-12.4h1.497c1.93,0,3.495-1.56,3.495-3.483
				V67.899C100.872,65.974,99.306,64.416,97.377,64.416z M53.081,44.623h28.328v12.469c0,0.673,0.548,1.218,1.223,1.218h10.802
				v6.106H53.081V44.623z M83.103,77.053c0,3.484-1.273,5.886-3.037,7.372c-1.921,1.592-4.848,2.349-8.423,2.349
				c-2.14,0-3.657-0.136-4.688-0.27V68.629c1.517-0.242,3.496-0.377,5.582-0.377c3.466,0,5.715,0.622,7.477,1.944
				C81.91,71.6,83.103,73.84,83.103,77.053z M51.212,86.585V68.629c1.273-0.215,3.062-0.377,5.581-0.377
				c2.546,0,4.362,0.486,5.581,1.459c1.165,0.917,1.949,2.43,1.949,4.212c0,1.781-0.594,3.294-1.679,4.32
				c-1.409,1.323-3.495,1.917-5.934,1.917c-0.541,0-1.03-0.027-1.408-0.081v6.507H51.212z M93.433,101.235H53.081v-11.74h40.353
				V101.235z M96.977,71.761h-7.019v4.157h6.557v3.349h-6.557v7.316h-4.143V68.387h11.162V71.761z"/>
		</g>
	</g>
</g>
<g id="doc_x5F_read" style="display:none;">
	<g id="shape_16_" style="display:inline;">
		<g>
			<path style="fill:#FFFFFF;" d="M75,146.5c-39.428,0-71.505-32.075-71.505-71.5C3.495,35.575,35.572,3.5,75,3.5
				s71.505,32.075,71.505,71.5C146.505,114.425,114.428,146.5,75,146.5z"/>
		</g>
		<g>
			<path style="fill:#4655A5;" d="M75,4.5c38.877,0,70.505,31.626,70.505,70.5S113.877,145.5,75,145.5
				c-38.877,0-70.505-31.626-70.505-70.5S36.123,4.5,75,4.5 M75,2.5C34.957,2.5,2.495,34.959,2.495,75S34.957,147.5,75,147.5
				c40.044,0,72.505-32.459,72.505-72.5S115.043,2.5,75,2.5L75,2.5z"/>
		</g>
	</g>
	<g id="doc_icon" style="display:inline;">
		<g>
			<path style="fill:#EF4681;" d="M97.795,64.74h-1.503v-7.201c0-0.045-0.007-0.091-0.013-0.137
				c-0.002-0.285-0.094-0.566-0.291-0.789L83.916,42.927c-0.004-0.004-0.007-0.005-0.01-0.008c-0.072-0.08-0.156-0.146-0.245-0.203
				c-0.026-0.018-0.053-0.032-0.08-0.047c-0.077-0.041-0.158-0.076-0.242-0.101c-0.023-0.007-0.043-0.015-0.066-0.021
				c-0.091-0.021-0.186-0.035-0.282-0.035H53.325c-1.355,0-2.455,1.093-2.455,2.437v19.792h-1.503c-1.938,0-3.509,1.559-3.509,3.483
				v18.114c0,1.922,1.571,3.483,3.509,3.483h1.503v12.4c0,1.343,1.101,2.437,2.455,2.437h40.511c1.354,0,2.455-1.093,2.455-2.437
				v-12.4h1.503c1.937,0,3.509-1.56,3.509-3.483V68.223C101.304,66.298,99.732,64.74,97.795,64.74z M53.325,44.947h28.439v12.468
				c0,0.674,0.55,1.219,1.227,1.219h10.845v6.105H53.325V44.947z M82.784,76.289c0,5.541-3.384,8.899-8.359,8.899
				c-5.05,0-8.005-3.785-8.005-8.597c0-5.065,3.257-8.85,8.283-8.85C79.928,67.741,82.784,71.626,82.784,76.289z M49.624,84.837
				V68.244c1.414-0.227,3.257-0.352,5.203-0.352c3.232,0,5.328,0.577,6.969,1.805c1.768,1.304,2.879,3.384,2.879,6.367
				c0,3.233-1.187,5.464-2.828,6.843c-1.793,1.479-4.521,2.181-7.854,2.181C51.997,85.088,50.584,84.962,49.624,84.837z
				 M93.836,101.559H53.325V89.82h40.511V101.559z M94.022,82.005c1.162,0,2.45-0.252,3.207-0.552l0.581,2.983
				c-0.707,0.352-2.298,0.726-4.369,0.726c-5.884,0-8.914-3.634-8.914-8.447c0-5.765,4.141-8.975,9.292-8.975
				c1.995,0,3.511,0.402,4.193,0.753l-0.783,3.032c-0.782-0.325-1.868-0.626-3.233-0.626c-3.055,0-5.43,1.83-5.43,5.59
				C88.567,79.873,90.587,82.005,94.022,82.005z M60.583,76.189c0.025-3.51-2.046-5.365-5.353-5.365
				c-0.859,0-1.415,0.076-1.743,0.152V82.03c0.328,0.075,0.859,0.075,1.339,0.075C58.311,82.13,60.583,80.225,60.583,76.189z
				 M70.485,76.515c0,3.31,1.566,5.64,4.141,5.64c2.602,0,4.091-2.456,4.091-5.74c0-3.034-1.464-5.64-4.116-5.64
				C72.001,70.775,70.485,73.232,70.485,76.515z"/>
		</g>
	</g>
</g>
<g id="doc_x5F_unread" style="display:none;">
	<g id="shape_18_" style="display:inline;">
		<g>
			<path style="fill:#EF4781;" d="M75,147.25c-39.841,0-72.255-32.411-72.255-72.25S35.159,2.75,75,2.75
				c39.842,0,72.255,32.411,72.255,72.25S114.842,147.25,75,147.25z"/>
		</g>
		<g>
			<path style="fill:#EF4781;" d="M75,3c39.704,0,72.005,32.299,72.005,72S114.704,147,75,147c-39.704,0-72.005-32.299-72.005-72
				S35.296,3,75,3 M75,2.5C34.957,2.5,2.495,34.959,2.495,75S34.957,147.5,75,147.5c40.044,0,72.505-32.459,72.505-72.5
				S115.043,2.5,75,2.5L75,2.5z"/>
		</g>
	</g>
	<g id="doc_icon_2_" style="display:inline;">
		<g>
			<path style="fill:#FFFFFF;" d="M97.795,64.74h-1.503v-7.201c0-0.045-0.007-0.091-0.013-0.137
				c-0.002-0.285-0.094-0.566-0.291-0.789L83.916,42.927c-0.004-0.004-0.007-0.005-0.01-0.008c-0.072-0.08-0.156-0.146-0.245-0.203
				c-0.026-0.018-0.053-0.032-0.08-0.047c-0.077-0.041-0.158-0.076-0.242-0.101c-0.023-0.007-0.043-0.015-0.066-0.021
				c-0.091-0.021-0.186-0.035-0.282-0.035H53.325c-1.355,0-2.455,1.093-2.455,2.437v19.792h-1.503c-1.938,0-3.509,1.559-3.509,3.483
				v18.114c0,1.922,1.571,3.483,3.509,3.483h1.503v12.4c0,1.343,1.101,2.437,2.455,2.437h40.511c1.354,0,2.455-1.093,2.455-2.437
				v-12.4h1.503c1.937,0,3.509-1.56,3.509-3.483V68.223C101.304,66.298,99.732,64.74,97.795,64.74z M53.325,44.947h28.439v12.468
				c0,0.674,0.55,1.219,1.227,1.219h10.845v6.105H53.325V44.947z M82.784,76.289c0,5.541-3.384,8.899-8.359,8.899
				c-5.05,0-8.005-3.785-8.005-8.597c0-5.065,3.257-8.85,8.283-8.85C79.928,67.741,82.784,71.626,82.784,76.289z M49.624,84.837
				V68.244c1.414-0.227,3.257-0.352,5.203-0.352c3.232,0,5.328,0.577,6.969,1.805c1.768,1.304,2.879,3.384,2.879,6.367
				c0,3.233-1.187,5.464-2.828,6.843c-1.793,1.479-4.521,2.181-7.854,2.181C51.997,85.088,50.584,84.962,49.624,84.837z
				 M93.836,101.559H53.325V89.82h40.511V101.559z M94.022,82.005c1.162,0,2.45-0.252,3.207-0.552l0.581,2.983
				c-0.707,0.352-2.298,0.726-4.369,0.726c-5.884,0-8.914-3.634-8.914-8.447c0-5.765,4.141-8.975,9.292-8.975
				c1.995,0,3.511,0.402,4.193,0.753l-0.783,3.032c-0.782-0.325-1.868-0.626-3.233-0.626c-3.055,0-5.43,1.83-5.43,5.59
				C88.567,79.873,90.587,82.005,94.022,82.005z M60.583,76.189c0.025-3.51-2.046-5.365-5.353-5.365
				c-0.859,0-1.415,0.076-1.743,0.152V82.03c0.328,0.075,0.859,0.075,1.339,0.075C58.311,82.13,60.583,80.225,60.583,76.189z
				 M70.485,76.515c0,3.31,1.566,5.64,4.141,5.64c2.602,0,4.091-2.456,4.091-5.74c0-3.034-1.464-5.64-4.116-5.64
				C72.001,70.775,70.485,73.232,70.485,76.515z"/>
		</g>
	</g>
</g>
<g id="xls_x5F_read" style="display:none;">
	<g id="shape_20_" style="display:inline;">
		<g>
			<path style="fill:#FFFFFF;" d="M75,146.5c-39.428,0-71.504-32.075-71.504-71.5C3.496,35.575,35.572,3.5,75,3.5
				s71.504,32.075,71.504,71.5C146.504,114.425,114.428,146.5,75,146.5z"/>
		</g>
		<g>
			<path style="fill:#4655A5;" d="M75,4.5c38.876,0,70.504,31.626,70.504,70.499c0,38.874-31.628,70.501-70.504,70.501
				S4.496,113.874,4.496,74.999C4.496,36.126,36.124,4.5,75,4.5 M75,2.5C34.957,2.5,2.496,34.959,2.496,74.999
				C2.496,115.041,34.957,147.5,75,147.5c40.043,0,72.504-32.459,72.504-72.501C147.504,34.959,115.043,2.5,75,2.5L75,2.5z"/>
		</g>
	</g>
	<g id="xls_icon" style="display:inline;">
		<g>
			<path style="fill:#EF4681;" d="M97.795,64.74h-1.503v-7.201c0-0.045-0.007-0.089-0.013-0.135
				c-0.002-0.286-0.095-0.566-0.292-0.789L83.916,42.927c-0.004-0.004-0.007-0.006-0.01-0.01c-0.072-0.079-0.156-0.146-0.244-0.203
				c-0.026-0.017-0.053-0.032-0.08-0.047c-0.077-0.042-0.158-0.076-0.242-0.102c-0.023-0.005-0.043-0.015-0.066-0.021
				c-0.091-0.021-0.186-0.035-0.282-0.035H53.326c-1.355,0-2.455,1.094-2.455,2.437v19.793h-1.503c-1.938,0-3.509,1.559-3.509,3.483
				v18.114c0,1.923,1.571,3.483,3.509,3.483h1.503v12.4c0,1.343,1.1,2.437,2.455,2.437h40.51c1.353,0,2.455-1.094,2.455-2.437V89.82
				h1.503c1.937,0,3.509-1.561,3.509-3.483V68.223C101.303,66.298,99.733,64.74,97.795,64.74z M53.326,44.947h28.438v12.469
				c0,0.673,0.55,1.219,1.227,1.219h10.845v6.106h-40.51V44.947z M80.874,82.49v3.535H69.16V67.412h4.258V82.49H80.874z
				 M50.717,86.025l5.425-9.417l-5.231-9.196h4.869l1.641,3.396c0.557,1.132,0.974,2.044,1.42,3.093h0.055
				c0.446-1.188,0.807-2.016,1.28-3.093l1.586-3.396h4.841l-5.286,9.086l5.565,9.527h-4.897l-1.697-3.368
				c-0.695-1.299-1.141-2.265-1.669-3.342h-0.056c-0.39,1.078-0.862,2.044-1.446,3.342l-1.558,3.368H50.717z M93.836,101.56h-40.51
				V89.82h40.51V101.56z M87.966,86.301c-2.141,0-4.256-0.553-5.312-1.132l0.861-3.479c1.141,0.579,2.894,1.159,4.703,1.159
				c1.948,0,2.977-0.8,2.977-2.015c0-1.16-0.89-1.824-3.144-2.624c-3.116-1.077-5.147-2.79-5.147-5.497
				c0-3.175,2.671-5.606,7.096-5.606c2.114,0,3.672,0.443,4.785,0.94l-0.946,3.396c-0.751-0.359-2.087-0.884-3.923-0.884
				c-1.836,0-2.726,0.828-2.726,1.795c0,1.188,1.056,1.713,3.477,2.624c3.311,1.215,4.869,2.927,4.869,5.55
				C95.535,83.65,93.115,86.301,87.966,86.301z"/>
		</g>
	</g>
</g>
<g id="xls_x5F_unread" style="display:none;">
	<g id="shape_22_" style="display:inline;">
		<g>
			<path style="fill:#EF4781;" d="M75,147.25c-39.841,0-72.254-32.411-72.254-72.25C2.746,35.161,35.159,2.75,75,2.75
				c39.841,0,72.254,32.411,72.254,72.25C147.254,114.839,114.841,147.25,75,147.25z"/>
		</g>
		<g>
			<path style="fill:#EF4781;" d="M75,3c39.703,0,72.004,32.299,72.004,71.999C147.004,114.701,114.703,147,75,147
				S2.996,114.701,2.996,74.999C2.996,35.299,35.297,3,75,3 M75,2.5C34.957,2.5,2.496,34.959,2.496,74.999
				C2.496,115.041,34.957,147.5,75,147.5c40.043,0,72.504-32.459,72.504-72.501C147.504,34.959,115.043,2.5,75,2.5L75,2.5z"/>
		</g>
	</g>
	<g id="xls_icon_2_" style="display:inline;">
		<g>
			<path style="fill:#FFFFFF;" d="M97.795,64.74h-1.503v-7.201c0-0.045-0.007-0.089-0.013-0.135
				c-0.002-0.286-0.095-0.566-0.292-0.789L83.916,42.927c-0.004-0.004-0.007-0.006-0.01-0.01c-0.072-0.079-0.156-0.146-0.244-0.203
				c-0.026-0.017-0.053-0.032-0.08-0.047c-0.077-0.042-0.158-0.076-0.242-0.102c-0.023-0.005-0.043-0.015-0.066-0.021
				c-0.091-0.021-0.186-0.035-0.282-0.035H53.326c-1.355,0-2.455,1.094-2.455,2.437v19.793h-1.503c-1.938,0-3.509,1.559-3.509,3.483
				v18.114c0,1.923,1.571,3.483,3.509,3.483h1.503v12.4c0,1.343,1.1,2.437,2.455,2.437h40.51c1.353,0,2.455-1.094,2.455-2.437V89.82
				h1.503c1.937,0,3.509-1.561,3.509-3.483V68.223C101.303,66.298,99.733,64.74,97.795,64.74z M53.326,44.947h28.438v12.469
				c0,0.673,0.55,1.219,1.227,1.219h10.845v6.106h-40.51V44.947z M80.874,82.49v3.535H69.16V67.412h4.258V82.49H80.874z
				 M50.717,86.025l5.425-9.417l-5.231-9.196h4.869l1.641,3.396c0.557,1.132,0.974,2.044,1.42,3.093h0.055
				c0.446-1.188,0.807-2.016,1.28-3.093l1.586-3.396h4.841l-5.286,9.086l5.565,9.527h-4.897l-1.697-3.368
				c-0.695-1.299-1.141-2.265-1.669-3.342h-0.056c-0.39,1.078-0.862,2.044-1.446,3.342l-1.558,3.368H50.717z M93.836,101.56h-40.51
				V89.82h40.51V101.56z M87.966,86.301c-2.141,0-4.256-0.553-5.312-1.132l0.861-3.479c1.141,0.579,2.894,1.159,4.703,1.159
				c1.948,0,2.977-0.8,2.977-2.015c0-1.16-0.89-1.824-3.144-2.624c-3.116-1.077-5.147-2.79-5.147-5.497
				c0-3.175,2.671-5.606,7.096-5.606c2.114,0,3.672,0.443,4.785,0.94l-0.946,3.396c-0.751-0.359-2.087-0.884-3.923-0.884
				c-1.836,0-2.726,0.828-2.726,1.795c0,1.188,1.056,1.713,3.477,2.624c3.311,1.215,4.869,2.927,4.869,5.55
				C95.535,83.65,93.115,86.301,87.966,86.301z"/>
		</g>
		<g>
			<path style="fill:none;stroke:#EF4781;stroke-miterlimit:10;" d="M97.795,64.74h-1.503v-7.201c0-0.045-0.007-0.089-0.013-0.135
				c-0.002-0.286-0.095-0.566-0.292-0.789L83.916,42.927c-0.004-0.004-0.007-0.006-0.01-0.01c-0.072-0.079-0.156-0.146-0.244-0.203
				c-0.026-0.017-0.053-0.032-0.08-0.047c-0.077-0.042-0.158-0.076-0.242-0.102c-0.023-0.005-0.043-0.015-0.066-0.021
				c-0.091-0.021-0.186-0.035-0.282-0.035H53.326c-1.355,0-2.455,1.094-2.455,2.437v19.793h-1.503c-1.938,0-3.509,1.559-3.509,3.483
				v18.114c0,1.923,1.571,3.483,3.509,3.483h1.503v12.4c0,1.343,1.1,2.437,2.455,2.437h40.51c1.353,0,2.455-1.094,2.455-2.437V89.82
				h1.503c1.937,0,3.509-1.561,3.509-3.483V68.223C101.303,66.298,99.733,64.74,97.795,64.74z M53.326,44.947h28.438v12.469
				c0,0.673,0.55,1.219,1.227,1.219h10.845v6.106h-40.51V44.947z M80.874,82.49v3.535H69.16V67.412h4.258V82.49H80.874z
				 M50.717,86.025l5.425-9.417l-5.231-9.196h4.869l1.641,3.396c0.557,1.132,0.974,2.044,1.42,3.093h0.055
				c0.446-1.188,0.807-2.016,1.28-3.093l1.586-3.396h4.841l-5.286,9.086l5.565,9.527h-4.897l-1.697-3.368
				c-0.695-1.299-1.141-2.265-1.669-3.342h-0.056c-0.39,1.078-0.862,2.044-1.446,3.342l-1.558,3.368H50.717z M93.836,101.56h-40.51
				V89.82h40.51V101.56z M87.966,86.301c-2.141,0-4.256-0.553-5.312-1.132l0.861-3.479c1.141,0.579,2.894,1.159,4.703,1.159
				c1.948,0,2.977-0.8,2.977-2.015c0-1.16-0.89-1.824-3.144-2.624c-3.116-1.077-5.147-2.79-5.147-5.497
				c0-3.175,2.671-5.606,7.096-5.606c2.114,0,3.672,0.443,4.785,0.94l-0.946,3.396c-0.751-0.359-2.087-0.884-3.923-0.884
				c-1.836,0-2.726,0.828-2.726,1.795c0,1.188,1.056,1.713,3.477,2.624c3.311,1.215,4.869,2.927,4.869,5.55
				C95.535,83.65,93.115,86.301,87.966,86.301z"/>
		</g>
	</g>
</g>
<g id="ppt_x5F_read">
	<g id="shape_44_">
		<g>
			<path style="fill:#FFFFFF;" d="M75,146.5c-39.428,0-71.504-32.075-71.504-71.5C3.496,35.575,35.572,3.5,75,3.5
				s71.504,32.075,71.504,71.5C146.504,114.425,114.428,146.5,75,146.5z"/>
		</g>
		<g>
			<path style="fill:#F15A2C;" d="M75,4.5c38.876,0,70.504,31.626,70.504,70.499c0,38.874-31.628,70.501-70.504,70.501
				S4.496,113.874,4.496,74.999C4.496,36.126,36.124,4.5,75,4.5 M75,2.5C34.957,2.5,2.496,34.959,2.496,74.999
				C2.496,115.041,34.957,147.5,75,147.5c40.043,0,72.504-32.459,72.504-72.501C147.504,34.959,115.043,2.5,75,2.5L75,2.5z"/>
		</g>
	</g>
	<g id="Forma_1">
		<g>
			<path style="fill-rule:evenodd;clip-rule:evenodd;fill:#F15A2C;" d="M76.696,68.443c-0.848,0-1.423,0.081-1.724,0.163v5.448
				c0.357,0.081,0.794,0.11,1.396,0.11c2.218,0,3.586-1.123,3.586-3.011C79.954,69.455,78.777,68.443,76.696,68.443z M64.049,71.152
				c0-1.697-1.176-2.709-3.256-2.709c-0.848,0-1.423,0.081-1.724,0.163v5.448c0.356,0.081,0.795,0.11,1.396,0.11
				C62.682,74.163,64.049,73.04,64.049,71.152z M100.442,62.118h-1.513v-7.299c0-0.046-0.007-0.091-0.013-0.138
				c-0.002-0.29-0.095-0.575-0.293-0.8L86.476,40.006c-0.004-0.004-0.007-0.005-0.01-0.009c-0.072-0.081-0.157-0.148-0.246-0.206
				c-0.027-0.018-0.053-0.033-0.081-0.048c-0.077-0.042-0.159-0.077-0.244-0.103c-0.023-0.006-0.043-0.016-0.066-0.022
				c-0.092-0.022-0.187-0.035-0.284-0.035H55.694c-1.363,0-2.471,1.109-2.471,2.471v20.063h-1.512c-1.95,0-3.531,1.581-3.531,3.531
				v18.363c0,1.949,1.581,3.531,3.531,3.531h1.512v12.571c0,1.362,1.107,2.471,2.471,2.471h40.765c1.362,0,2.471-1.109,2.471-2.471
				v-12.57h1.513c1.949,0,3.531-1.582,3.531-3.531V65.649C103.973,63.698,102.391,62.118,100.442,62.118z M55.694,42.054h28.617
				v12.64c0,0.682,0.554,1.235,1.235,1.235h10.913v6.189H55.694V42.054z M84.087,71.042c0,1.806-0.602,3.339-1.696,4.378
				c-1.425,1.341-3.532,1.944-5.996,1.944c-0.547,0-1.04-0.029-1.423-0.082v6.596h-4.133V65.677
				c1.287-0.219,3.094-0.384,5.639-0.384c2.572,0,4.406,0.493,5.637,1.479C83.293,67.703,84.087,69.236,84.087,71.042z
				 M54.935,83.879V65.677c1.286-0.219,3.094-0.384,5.639-0.384c2.573,0,4.406,0.493,5.638,1.479
				c1.178,0.931,1.971,2.463,1.971,4.27c0,1.806-0.602,3.339-1.696,4.378c-1.424,1.341-3.532,1.944-5.996,1.944
				c-0.547,0-1.04-0.029-1.423-0.082v6.596H54.935z M96.459,99.443H55.694V87.543h40.765V99.443z M99.525,68.935h-5.036v14.944
				h-4.187V68.935h-4.954v-3.503h14.178V68.935z"/>
		</g>
	</g>
</g>
<g id="ppt_x5F_unread" style="display:none;">
	<g id="shape_46_" style="display:inline;">
		<g>
			<path style="fill:#F15A2C;" d="M75,147.25c-39.841,0-72.254-32.411-72.254-72.25C2.746,35.161,35.159,2.75,75,2.75
				c39.841,0,72.254,32.411,72.254,72.25C147.254,114.839,114.841,147.25,75,147.25z"/>
		</g>
		<g>
			<path style="fill:#F15A2C;" d="M75,3c39.703,0,72.004,32.299,72.004,71.999C147.004,114.701,114.703,147,75,147
				S2.996,114.701,2.996,74.999C2.996,35.299,35.297,3,75,3 M75,2.5C34.957,2.5,2.496,34.959,2.496,74.999
				C2.496,115.041,34.957,147.5,75,147.5c40.043,0,72.504-32.459,72.504-72.501C147.504,34.959,115.043,2.5,75,2.5L75,2.5z"/>
		</g>
	</g>
	<g id="Forma_1_2_" style="display:inline;">
		<g>
			<path style="fill-rule:evenodd;clip-rule:evenodd;fill:#FFFFFF;" d="M75.62,72.359c-0.848,0-1.423,0.081-1.724,0.163v5.448
				c0.357,0.081,0.794,0.11,1.396,0.11c2.218,0,3.586-1.123,3.586-3.011C78.877,73.372,77.7,72.359,75.62,72.359z M62.973,75.069
				c0-1.697-1.176-2.709-3.256-2.709c-0.848,0-1.423,0.081-1.724,0.163v5.448c0.356,0.081,0.795,0.11,1.396,0.11
				C61.605,78.08,62.973,76.957,62.973,75.069z M99.366,66.035h-1.513v-7.299c0-0.046-0.007-0.091-0.013-0.138
				c-0.002-0.29-0.095-0.575-0.293-0.8L85.4,43.923c-0.004-0.004-0.007-0.005-0.01-0.009c-0.072-0.081-0.157-0.148-0.246-0.206
				c-0.026-0.018-0.053-0.033-0.081-0.048c-0.077-0.042-0.159-0.077-0.244-0.103c-0.023-0.006-0.043-0.016-0.066-0.022
				c-0.092-0.022-0.187-0.035-0.284-0.035H54.618c-1.363,0-2.471,1.109-2.471,2.471v20.063h-1.512c-1.95,0-3.531,1.581-3.531,3.531
				v18.363c0,1.949,1.581,3.531,3.531,3.531h1.512v12.571c0,1.362,1.107,2.471,2.471,2.471h40.765c1.362,0,2.471-1.109,2.471-2.471
				v-12.57h1.513c1.949,0,3.531-1.582,3.531-3.531V69.566C102.896,67.615,101.315,66.035,99.366,66.035z M54.618,45.971h28.617
				v12.64c0,0.682,0.554,1.235,1.235,1.235h10.913v6.189H54.618V45.971z M83.01,74.959c0,1.807-0.602,3.339-1.696,4.378
				c-1.425,1.341-3.532,1.944-5.996,1.944c-0.547,0-1.04-0.029-1.423-0.082v6.596h-4.133V69.594
				c1.287-0.219,3.094-0.384,5.639-0.384c2.572,0,4.406,0.493,5.637,1.479C82.216,71.62,83.01,73.153,83.01,74.959z M53.859,87.796
				V69.594c1.287-0.219,3.094-0.384,5.639-0.384c2.573,0,4.406,0.493,5.638,1.479c1.178,0.931,1.971,2.463,1.971,4.27
				s-0.602,3.339-1.696,4.378c-1.424,1.341-3.532,1.944-5.996,1.944c-0.547,0-1.04-0.029-1.423-0.082v6.596H53.859z M95.382,103.36
				H54.618V91.459h40.765V103.36z M98.449,72.852h-5.036v14.944h-4.187V72.852h-4.954v-3.503h14.178V72.852z"/>
		</g>
	</g>
</g>
<g id="text_x5F_read" style="display:none;">
	<g id="shape_24_" style="display:inline;">
		<g>
			<path style="fill:#FFFFFF;" d="M75,146.5c-39.428,0-71.505-32.075-71.505-71.5C3.495,35.575,35.572,3.5,75,3.5
				s71.505,32.075,71.505,71.5C146.505,114.425,114.428,146.5,75,146.5z"/>
		</g>
		<g>
			<path style="fill:#4655A5;" d="M75,4.5c38.877,0,70.505,31.626,70.505,70.5S113.877,145.5,75,145.5S4.495,113.874,4.495,75
				S36.123,4.5,75,4.5 M75,2.5C34.957,2.5,2.495,34.959,2.495,75c0,40.04,32.462,72.5,72.505,72.5
				c40.043,0,72.505-32.46,72.505-72.5C147.505,34.959,115.043,2.5,75,2.5L75,2.5z"/>
		</g>
	</g>
	<g id="text_icon" style="display:inline;">
		<g>
			<polygon style="fill:#EF4681;" points="49.105,42.205 49.105,58.138 53.265,58.138 54.272,51.255 72.122,51.255 72.122,99.823 
				65.876,99.823 65.876,104.352 87.58,104.352 87.58,99.823 81.332,99.823 81.332,51.255 99.185,51.255 100.187,58.138 
				104.347,58.138 104.347,42.205 			"/>
		</g>
	</g>
</g>
<g id="text_x5F_unread" style="display:none;">
	<g id="shape_26_" style="display:inline;">
		<g>
			<path style="fill:#EF4781;" d="M75,147.25c-39.841,0-72.255-32.411-72.255-72.25S35.159,2.75,75,2.75
				c39.842,0,72.255,32.411,72.255,72.25S114.842,147.25,75,147.25z"/>
		</g>
		<g>
			<path style="fill:#EF4781;" d="M75,3c39.704,0,72.005,32.299,72.005,72S114.704,147,75,147S2.995,114.701,2.995,75S35.296,3,75,3
				 M75,2.5C34.957,2.5,2.495,34.959,2.495,75c0,40.04,32.461,72.5,72.505,72.5c40.043,0,72.505-32.46,72.505-72.5
				C147.505,34.959,115.043,2.5,75,2.5L75,2.5z"/>
		</g>
	</g>
	<g id="text_icon_2_" style="display:inline;">
		<g>
			<polygon style="fill:#FFFFFF;" points="49.105,42.205 49.105,58.138 53.265,58.138 54.272,51.255 72.122,51.255 72.122,99.823 
				65.876,99.823 65.876,104.352 87.58,104.352 87.58,99.823 81.332,99.823 81.332,51.255 99.185,51.255 100.187,58.138 
				104.347,58.138 104.347,42.205 			"/>
		</g>
		<g>
			<polygon style="fill:none;stroke:#EF4781;stroke-miterlimit:10;" points="49.105,42.205 49.105,58.138 53.265,58.138 
				54.272,51.255 72.122,51.255 72.122,99.823 65.876,99.823 65.876,104.352 87.58,104.352 87.58,99.823 81.332,99.823 
				81.332,51.255 99.185,51.255 100.187,58.138 104.347,58.138 104.347,42.205 			"/>
		</g>
	</g>
</g>
<g id="quiz_x5F_read" style="display:none;">
	<g id="shape_28_" style="display:inline;">
		<g>
			<path style="fill:#FFFFFF;" d="M75,146.5c-39.422,0-71.495-32.074-71.495-71.5S35.578,3.5,75,3.5
				c39.423,0,71.495,32.075,71.495,71.5S114.423,146.5,75,146.5z"/>
		</g>
		<g>
			<path style="fill:#4655A5;" d="M75,4.5c38.871,0,70.495,31.626,70.495,70.5c0,38.874-31.624,70.5-70.495,70.5
				S4.505,113.874,4.505,75C4.505,36.126,36.129,4.5,75,4.5 M75,2.5C34.962,2.5,2.505,34.959,2.505,75
				c0,40.04,32.457,72.5,72.495,72.5c40.038,0,72.495-32.46,72.495-72.5C147.495,34.959,115.038,2.5,75,2.5L75,2.5z"/>
		</g>
	</g>
	<g id="quiz_icon" style="display:inline;">
		<g>
			<path style="fill:#EF4681;" d="M75.041,50.519h-2.252c-9.577,0.599-17.213,8.521-17.213,18.202
				c0,6.655,2.969,11.972,8.096,15.115v5.237c0,1.529,0.574,2.121,1.47,2.71c0.223,0.143,0.365,0.387,0.381,0.654
				c0.016,0.266,0.042,0.61-0.298,0.692c-1.388,0-1.384,1.505-1.384,1.505c0,0.61,0,3.376,0,3.376c0,0.756,0.618,1.367,1.384,1.367
				h0.926c0.74,0,1.279,0.605,1.279,0.605s3.255,2.633,6.486,2.633c3.276,0,6.484-2.633,6.484-2.633s0.539-0.605,1.279-0.605h0.926
				c0.768,0,1.384-0.611,1.384-1.367c0,0,0-2.764,0-3.376c0,0,0.004-1.505-1.384-1.505c-0.339-0.08-0.312-0.43-0.296-0.692
				c0.02-0.267,0.158-0.511,0.381-0.654c0.894-0.59,1.469-1.179,1.469-2.71v-5.237c5.128-3.142,8.096-8.46,8.096-15.115
				C92.254,59.04,84.622,51.117,75.041,50.519z M80.311,79.874l-1.032,0.53v4.86c0,0.832-0.582,1.541-1.399,1.716l-2.175,0.453
				c-0.367,0.081-2.12,0.367-3.576,0l-2.175-0.453c-0.817-0.175-1.399-0.884-1.399-1.716v-4.861l-1.032-0.53
				c-5.183-2.636-6.271-7.344-6.271-10.821c0-6.973,5.674-12.645,12.666-12.668c6.989,0.023,12.664,5.696,12.664,12.668
				C86.58,72.531,85.492,77.239,80.311,79.874z M97.149,52.592c0.069-0.447-0.057-0.902-0.347-1.259
				c-0.17-0.211-0.343-0.418-0.517-0.627c-0.296-0.346-0.72-0.557-1.182-0.582c-0.452-0.025-0.904,0.138-1.236,0.449l-2.97,2.794
				c-0.624,0.596-0.681,1.571-0.132,2.232c0.037,0.039,0.065,0.078,0.103,0.119c0.545,0.668,1.522,0.805,2.236,0.308l3.353-2.327
				C96.83,53.44,97.08,53.04,97.149,52.592z M73.745,47.817c0.049-0.002,0.101-0.002,0.15-0.002
				c0.868-0.006,1.587-0.675,1.642-1.535l0.263-4.046c0.03-0.451-0.128-0.894-0.446-1.224c-0.308-0.332-0.748-0.52-1.202-0.522
				c-0.276,0-0.549,0.002-0.823,0.008c-0.456,0.011-0.89,0.209-1.194,0.547c-0.304,0.338-0.456,0.786-0.417,1.236l0.353,4.04
				C72.146,47.174,72.876,47.828,73.745,47.817z M53.046,74.111c-0.199-0.84-1.018-1.373-1.877-1.24l-4.048,0.658
				c-0.452,0.073-0.853,0.325-1.109,0.7c-0.255,0.37-0.345,0.837-0.247,1.276c0.059,0.264,0.124,0.529,0.193,0.787
				c0.112,0.441,0.403,0.812,0.803,1.025c0.401,0.217,0.874,0.272,1.311,0.121l3.904-1.239c0.825-0.266,1.311-1.113,1.105-1.949
				C53.069,74.212,53.057,74.159,53.046,74.111z M56.977,56.125c0.034-0.041,0.063-0.082,0.097-0.121
				c0.537-0.68,0.452-1.651-0.191-2.228l-3.034-2.723c-0.339-0.304-0.79-0.457-1.245-0.422c-0.454,0.037-0.876,0.256-1.163,0.607
				c-0.174,0.213-0.341,0.425-0.507,0.642c-0.276,0.363-0.389,0.818-0.312,1.265c0.077,0.445,0.336,0.838,0.715,1.092l3.413,2.247
				C55.471,56.961,56.446,56.803,56.977,56.125z M102.246,73.658c-0.266-0.368-0.671-0.613-1.123-0.678l-4.054-0.567
				c-0.861-0.12-1.67,0.439-1.851,1.279c-0.02,0.043-0.03,0.105-0.041,0.152c-0.199,0.839,0.306,1.669,1.143,1.917l3.924,1.155
				c0.446,0.126,0.914,0.071,1.307-0.147c0.393-0.229,0.679-0.61,0.782-1.049c0.061-0.271,0.12-0.529,0.174-0.788
				C102.607,74.485,102.508,74.027,102.246,73.658z"/>
		</g>
	</g>
</g>
<g id="quiz_x5F_unread" style="display:none;">
	<g id="shape_30_" style="display:inline;">
		<g>
			<path style="fill:#EF4781;" d="M75,147.25c-39.836,0-72.245-32.411-72.245-72.25C2.755,35.162,35.164,2.75,75,2.75
				S147.245,35.162,147.245,75C147.245,114.839,114.836,147.25,75,147.25z"/>
		</g>
		<g>
			<path style="fill:#EF4781;" d="M75,3c39.698,0,71.995,32.299,71.995,72c0,39.701-32.297,72-71.995,72S3.005,114.701,3.005,75
				C3.005,35.299,35.302,3,75,3 M75,2.5C34.962,2.5,2.505,34.959,2.505,75c0,40.04,32.457,72.5,72.495,72.5
				c40.038,0,72.495-32.46,72.495-72.5C147.495,34.959,115.038,2.5,75,2.5L75,2.5z"/>
		</g>
	</g>
	<g id="quiz_icon_2_" style="display:inline;">
		<g>
			<path style="fill:#FFFFFF;" d="M75.041,50.519h-2.252c-9.577,0.599-17.213,8.521-17.213,18.202
				c0,6.655,2.969,11.972,8.096,15.115v5.237c0,1.529,0.574,2.121,1.47,2.71c0.223,0.143,0.365,0.387,0.381,0.654
				c0.016,0.266,0.042,0.61-0.298,0.692c-1.388,0-1.384,1.505-1.384,1.505c0,0.61,0,3.376,0,3.376c0,0.756,0.618,1.367,1.384,1.367
				h0.926c0.74,0,1.279,0.605,1.279,0.605s3.255,2.633,6.486,2.633c3.276,0,6.484-2.633,6.484-2.633s0.539-0.605,1.279-0.605h0.926
				c0.768,0,1.384-0.611,1.384-1.367c0,0,0-2.764,0-3.376c0,0,0.004-1.505-1.384-1.505c-0.339-0.08-0.312-0.43-0.296-0.692
				c0.02-0.267,0.158-0.511,0.381-0.654c0.894-0.59,1.469-1.179,1.469-2.71v-5.237c5.128-3.142,8.096-8.46,8.096-15.115
				C92.254,59.04,84.622,51.117,75.041,50.519z M80.311,79.874l-1.032,0.53v4.86c0,0.832-0.582,1.541-1.399,1.716l-2.175,0.453
				c-0.367,0.081-2.12,0.367-3.576,0l-2.175-0.453c-0.817-0.175-1.399-0.884-1.399-1.716v-4.861l-1.032-0.53
				c-5.183-2.636-6.271-7.344-6.271-10.821c0-6.973,5.674-12.645,12.666-12.668c6.989,0.023,12.664,5.696,12.664,12.668
				C86.58,72.531,85.492,77.239,80.311,79.874z M97.149,52.592c0.069-0.447-0.057-0.902-0.347-1.259
				c-0.17-0.211-0.343-0.418-0.517-0.627c-0.296-0.346-0.72-0.557-1.182-0.582c-0.452-0.025-0.904,0.138-1.236,0.449l-2.97,2.794
				c-0.624,0.596-0.681,1.571-0.132,2.232c0.037,0.039,0.065,0.078,0.103,0.119c0.545,0.668,1.522,0.805,2.236,0.308l3.353-2.327
				C96.83,53.44,97.08,53.04,97.149,52.592z M73.745,47.817c0.049-0.002,0.101-0.002,0.15-0.002
				c0.868-0.006,1.587-0.675,1.642-1.535l0.263-4.046c0.03-0.451-0.128-0.894-0.446-1.224c-0.308-0.332-0.748-0.52-1.202-0.522
				c-0.276,0-0.549,0.002-0.823,0.008c-0.456,0.011-0.89,0.209-1.194,0.547c-0.304,0.338-0.456,0.786-0.417,1.236l0.353,4.04
				C72.146,47.174,72.876,47.828,73.745,47.817z M53.046,74.111c-0.199-0.84-1.018-1.373-1.877-1.24l-4.048,0.658
				c-0.452,0.073-0.853,0.325-1.109,0.7c-0.255,0.37-0.345,0.837-0.247,1.276c0.059,0.264,0.124,0.529,0.193,0.787
				c0.112,0.441,0.403,0.812,0.803,1.025c0.401,0.217,0.874,0.272,1.311,0.121l3.904-1.239c0.825-0.266,1.311-1.113,1.105-1.949
				C53.069,74.212,53.057,74.159,53.046,74.111z M56.977,56.125c0.034-0.041,0.063-0.082,0.097-0.121
				c0.537-0.68,0.452-1.651-0.191-2.228l-3.034-2.723c-0.339-0.304-0.79-0.457-1.245-0.422c-0.454,0.037-0.876,0.256-1.163,0.607
				c-0.174,0.213-0.341,0.425-0.507,0.642c-0.276,0.363-0.389,0.818-0.312,1.265c0.077,0.445,0.336,0.838,0.715,1.092l3.413,2.247
				C55.471,56.961,56.446,56.803,56.977,56.125z M102.246,73.658c-0.266-0.368-0.671-0.613-1.123-0.678l-4.054-0.567
				c-0.861-0.12-1.67,0.439-1.851,1.279c-0.02,0.043-0.03,0.105-0.041,0.152c-0.199,0.839,0.306,1.669,1.143,1.917l3.924,1.155
				c0.446,0.126,0.914,0.071,1.307-0.147c0.393-0.229,0.679-0.61,0.782-1.049c0.061-0.271,0.12-0.529,0.174-0.788
				C102.607,74.485,102.508,74.027,102.246,73.658z"/>
		</g>
		<g>
			<path style="fill:none;stroke:#EF4781;stroke-miterlimit:10;" d="M75.041,50.519h-2.252c-9.577,0.599-17.213,8.521-17.213,18.202
				c0,6.655,2.969,11.972,8.096,15.115v5.237c0,1.529,0.574,2.121,1.47,2.71c0.223,0.143,0.365,0.387,0.381,0.654
				c0.016,0.266,0.042,0.61-0.298,0.692c-1.388,0-1.384,1.505-1.384,1.505c0,0.61,0,3.376,0,3.376c0,0.756,0.618,1.367,1.384,1.367
				h0.926c0.74,0,1.279,0.605,1.279,0.605s3.255,2.633,6.486,2.633c3.276,0,6.484-2.633,6.484-2.633s0.539-0.605,1.279-0.605h0.926
				c0.768,0,1.384-0.611,1.384-1.367c0,0,0-2.764,0-3.376c0,0,0.004-1.505-1.384-1.505c-0.339-0.08-0.312-0.43-0.296-0.692
				c0.02-0.267,0.158-0.511,0.381-0.654c0.894-0.59,1.469-1.179,1.469-2.71v-5.237c5.128-3.142,8.096-8.46,8.096-15.115
				C92.254,59.04,84.622,51.117,75.041,50.519z M80.311,79.874l-1.032,0.53v4.86c0,0.832-0.582,1.541-1.399,1.716l-2.175,0.453
				c-0.367,0.081-2.12,0.367-3.576,0l-2.175-0.453c-0.817-0.175-1.399-0.884-1.399-1.716v-4.861l-1.032-0.53
				c-5.183-2.636-6.271-7.344-6.271-10.821c0-6.973,5.674-12.645,12.666-12.668c6.989,0.023,12.664,5.696,12.664,12.668
				C86.58,72.531,85.492,77.239,80.311,79.874z M97.149,52.592c0.069-0.447-0.057-0.902-0.347-1.259
				c-0.17-0.211-0.343-0.418-0.517-0.627c-0.296-0.346-0.72-0.557-1.182-0.582c-0.452-0.025-0.904,0.138-1.236,0.449l-2.97,2.794
				c-0.624,0.596-0.681,1.571-0.132,2.232c0.037,0.039,0.065,0.078,0.103,0.119c0.545,0.668,1.522,0.805,2.236,0.308l3.353-2.327
				C96.83,53.44,97.08,53.04,97.149,52.592z M73.745,47.817c0.049-0.002,0.101-0.002,0.15-0.002
				c0.868-0.006,1.587-0.675,1.642-1.535l0.263-4.046c0.03-0.451-0.128-0.894-0.446-1.224c-0.308-0.332-0.748-0.52-1.202-0.522
				c-0.276,0-0.549,0.002-0.823,0.008c-0.456,0.011-0.89,0.209-1.194,0.547c-0.304,0.338-0.456,0.786-0.417,1.236l0.353,4.04
				C72.146,47.174,72.876,47.828,73.745,47.817z M53.046,74.111c-0.199-0.84-1.018-1.373-1.877-1.24l-4.048,0.658
				c-0.452,0.073-0.853,0.325-1.109,0.7c-0.255,0.37-0.345,0.837-0.247,1.276c0.059,0.264,0.124,0.529,0.193,0.787
				c0.112,0.441,0.403,0.812,0.803,1.025c0.401,0.217,0.874,0.272,1.311,0.121l3.904-1.239c0.825-0.266,1.311-1.113,1.105-1.949
				C53.069,74.212,53.057,74.159,53.046,74.111z M56.977,56.125c0.034-0.041,0.063-0.082,0.097-0.121
				c0.537-0.68,0.452-1.651-0.191-2.228l-3.034-2.723c-0.339-0.304-0.79-0.457-1.245-0.422c-0.454,0.037-0.876,0.256-1.163,0.607
				c-0.174,0.213-0.341,0.425-0.507,0.642c-0.276,0.363-0.389,0.818-0.312,1.265c0.077,0.445,0.336,0.838,0.715,1.092l3.413,2.247
				C55.471,56.961,56.446,56.803,56.977,56.125z M102.246,73.658c-0.266-0.368-0.671-0.613-1.123-0.678l-4.054-0.567
				c-0.861-0.12-1.67,0.439-1.851,1.279c-0.02,0.043-0.03,0.105-0.041,0.152c-0.199,0.839,0.306,1.669,1.143,1.917l3.924,1.155
				c0.446,0.126,0.914,0.071,1.307-0.147c0.393-0.229,0.679-0.61,0.782-1.049c0.061-0.271,0.12-0.529,0.174-0.788
				C102.607,74.485,102.508,74.027,102.246,73.658z"/>
		</g>
	</g>
</g>
<g id="feedback_x5F_read" style="display:none;">
	<g id="shape_32_" style="display:inline;">
		<g>
			<path style="fill:#FFFFFF;" d="M75,146.5c-39.428,0-71.505-32.075-71.505-71.5C3.495,35.575,35.572,3.5,75,3.5
				s71.505,32.075,71.505,71.5C146.505,114.425,114.428,146.5,75,146.5z"/>
		</g>
		<g>
			<path style="fill:#4655A5;" d="M75,4.5c38.877,0,70.505,31.626,70.505,70.5S113.877,145.5,75,145.5S4.495,113.874,4.495,75
				S36.123,4.5,75,4.5 M75,2.5C34.957,2.5,2.495,34.959,2.495,75c0,40.04,32.462,72.5,72.505,72.5
				c40.043,0,72.505-32.46,72.505-72.5C147.505,34.959,115.043,2.5,75,2.5L75,2.5z"/>
		</g>
	</g>
	<g id="feedback_icon" style="display:inline;">
		<g>
			<path style="fill:#EF4681;" d="M83.221,100.902H43.983V49.109h39.238v8.827l5.229-5.771v-2.961c0-2.911-2.384-5.273-5.326-5.273
				H44.078c-2.941,0-5.326,2.359-5.326,5.273v51.606c0,2.913,2.385,5.273,5.326,5.273h39.05c2.94,0,5.326-2.36,5.326-5.273V83.817
				l-5.233,5.774V100.902z M78.782,58.605c0-1.429-1.17-2.588-2.614-2.588H51.006c-1.442-0.002-2.614,1.158-2.614,2.588
				c0,1.429,1.172,2.588,2.614,2.588h25.159C77.612,61.194,78.782,60.034,78.782,58.605z M75.179,66.868H51.006
				c-1.444,0-2.614,1.16-2.614,2.588c0,1.431,1.172,2.591,2.614,2.591h19.479L75.179,66.868z M65.402,77.595H51.006
				c-1.444,0-2.614,1.16-2.614,2.59c0,1.428,1.172,2.589,2.614,2.589h11.433L65.402,77.595z M48.392,91.038
				c0,1.43,1.172,2.588,2.614,2.588h8.373c0.033-0.372,0.087-0.572,0.169-0.854l1.258-4.326h-9.801
				C49.564,88.449,48.392,89.608,48.392,91.038z M87.656,58.855L69.389,79.012l-1.412,1.559l10.057,8.931l1.411-1.559l18.266-20.158
				l1.647-1.82l-10.054-8.929L87.656,58.855z M86.786,67.96L74.808,81.178c-0.148,0.168-0.361,0.266-0.586,0.276
				c-0.225,0.013-0.446-0.063-0.611-0.211l-0.592-0.527c-0.348-0.312-0.377-0.838-0.066-1.183l11.979-13.22
				c0.15-0.167,0.359-0.267,0.585-0.279c0.222-0.01,0.444,0.064,0.61,0.214l0.591,0.529C87.073,67.083,87.098,67.615,86.786,67.96z
				 M90.268,61.678l0.594,0.527c0.346,0.309,0.376,0.839,0.063,1.184l-0.152,0.168l-0.855,0.944l-0.036,0.039
				c-0.148,0.167-0.359,0.266-0.585,0.277c-0.226,0.013-0.443-0.063-0.61-0.214l-0.596-0.527c-0.169-0.147-0.266-0.357-0.279-0.578
				c-0.013-0.223,0.066-0.442,0.218-0.606l1.041-1.149C89.383,61.398,89.919,61.367,90.268,61.678z M91.032,55.129l-0.756,0.835
				l10.054,8.93l0.76-0.84l1.709-1.886l-10.054-8.926L91.032,55.129z M106.843,53.368l-5.698-5.063
				c-0.579-0.512-1.339-0.776-2.112-0.735c-0.773,0.042-1.504,0.386-2.019,0.958l-3.362,3.709l10.056,8.924l3.358-3.709
				c0.517-0.566,0.786-1.318,0.743-2.086C107.768,54.6,107.419,53.881,106.843,53.368z M103.502,57.446l-6.092-5.41l1.759-1.939
				l6.088,5.408L103.502,57.446z M65.268,95.52l11.559-4.687l-10.052-8.927l-3.458,11.884c-0.155,0.531,0.011,1.101,0.426,1.469
				C64.158,95.626,64.75,95.729,65.268,95.52z M67.695,85.079l5.839,5.189l-4.541,1.842l-2.658-2.36L67.695,85.079z"/>
		</g>
	</g>
</g>
<g id="feedback_x5F_unread" style="display:none;">
	<g id="shape_34_" style="display:inline;">
		<g>
			<path style="fill:#EF4781;" d="M75,147.25c-39.841,0-72.255-32.411-72.255-72.25S35.159,2.75,75,2.75
				c39.842,0,72.255,32.411,72.255,72.25S114.842,147.25,75,147.25z"/>
		</g>
		<g>
			<path style="fill:#EF4781;" d="M75,3c39.704,0,72.005,32.299,72.005,72S114.704,147,75,147S2.995,114.701,2.995,75S35.296,3,75,3
				 M75,2.5C34.957,2.5,2.495,34.959,2.495,75c0,40.04,32.461,72.5,72.505,72.5c40.043,0,72.505-32.46,72.505-72.5
				C147.505,34.959,115.043,2.5,75,2.5L75,2.5z"/>
		</g>
	</g>
	<g id="feedback_icon_2_" style="display:inline;">
		<g>
			<path style="fill:#FFFFFF;" d="M83.221,100.902H43.983V49.109h39.238v8.827l5.229-5.771v-2.961c0-2.911-2.384-5.273-5.326-5.273
				H44.078c-2.941,0-5.326,2.359-5.326,5.273v51.606c0,2.913,2.385,5.273,5.326,5.273h39.05c2.94,0,5.326-2.36,5.326-5.273V83.817
				l-5.233,5.774V100.902z M78.782,58.605c0-1.429-1.17-2.588-2.614-2.588H51.006c-1.442-0.002-2.614,1.158-2.614,2.588
				c0,1.429,1.172,2.588,2.614,2.588h25.159C77.612,61.194,78.782,60.034,78.782,58.605z M75.179,66.868H51.006
				c-1.444,0-2.614,1.16-2.614,2.588c0,1.431,1.172,2.591,2.614,2.591h19.479L75.179,66.868z M65.402,77.595H51.006
				c-1.444,0-2.614,1.16-2.614,2.59c0,1.428,1.172,2.589,2.614,2.589h11.433L65.402,77.595z M48.392,91.038
				c0,1.43,1.172,2.588,2.614,2.588h8.373c0.033-0.372,0.087-0.572,0.169-0.854l1.258-4.326h-9.801
				C49.564,88.449,48.392,89.608,48.392,91.038z M87.656,58.855L69.389,79.012l-1.412,1.559l10.057,8.931l1.411-1.559l18.266-20.158
				l1.647-1.82l-10.054-8.929L87.656,58.855z M86.786,67.96L74.808,81.178c-0.148,0.168-0.361,0.266-0.586,0.276
				c-0.225,0.013-0.446-0.063-0.611-0.211l-0.592-0.527c-0.348-0.312-0.377-0.838-0.066-1.183l11.979-13.22
				c0.15-0.167,0.359-0.267,0.585-0.279c0.222-0.01,0.444,0.064,0.61,0.214l0.591,0.529C87.073,67.083,87.098,67.615,86.786,67.96z
				 M90.268,61.678l0.594,0.527c0.346,0.309,0.376,0.839,0.063,1.184l-0.152,0.168l-0.855,0.944l-0.036,0.039
				c-0.148,0.167-0.359,0.266-0.585,0.277c-0.226,0.013-0.443-0.063-0.61-0.214l-0.596-0.527c-0.169-0.147-0.266-0.357-0.279-0.578
				c-0.013-0.223,0.066-0.442,0.218-0.606l1.041-1.149C89.383,61.398,89.919,61.367,90.268,61.678z M91.032,55.129l-0.756,0.835
				l10.054,8.93l0.76-0.84l1.709-1.886l-10.054-8.926L91.032,55.129z M106.843,53.368l-5.698-5.063
				c-0.579-0.512-1.339-0.776-2.112-0.735c-0.773,0.042-1.504,0.386-2.019,0.958l-3.362,3.709l10.056,8.924l3.358-3.709
				c0.517-0.566,0.786-1.318,0.743-2.086C107.768,54.6,107.419,53.881,106.843,53.368z M103.502,57.446l-6.092-5.41l1.759-1.939
				l6.088,5.408L103.502,57.446z M65.268,95.52l11.559-4.687l-10.052-8.927l-3.458,11.884c-0.155,0.531,0.011,1.101,0.426,1.469
				C64.158,95.626,64.75,95.729,65.268,95.52z M67.695,85.079l5.839,5.189l-4.541,1.842l-2.658-2.36L67.695,85.079z"/>
		</g>
		<g>
			<path style="fill:none;stroke:#EF4781;stroke-miterlimit:10;" d="M83.221,100.902H43.983V49.109h39.238v8.827l5.229-5.771v-2.961
				c0-2.911-2.384-5.273-5.326-5.273H44.078c-2.941,0-5.326,2.359-5.326,5.273v51.606c0,2.913,2.385,5.273,5.326,5.273h39.05
				c2.94,0,5.326-2.36,5.326-5.273V83.817l-5.233,5.774V100.902z M78.782,58.605c0-1.429-1.17-2.588-2.614-2.588H51.006
				c-1.442-0.002-2.614,1.158-2.614,2.588c0,1.429,1.172,2.588,2.614,2.588h25.159C77.612,61.194,78.782,60.034,78.782,58.605z
				 M75.179,66.868H51.006c-1.444,0-2.614,1.16-2.614,2.588c0,1.431,1.172,2.591,2.614,2.591h19.479L75.179,66.868z M65.402,77.595
				H51.006c-1.444,0-2.614,1.16-2.614,2.59c0,1.428,1.172,2.589,2.614,2.589h11.433L65.402,77.595z M48.392,91.038
				c0,1.43,1.172,2.588,2.614,2.588h8.373c0.033-0.372,0.087-0.572,0.169-0.854l1.258-4.326h-9.801
				C49.564,88.449,48.392,89.608,48.392,91.038z M87.656,58.855L69.389,79.012l-1.412,1.559l10.057,8.931l1.411-1.559l18.266-20.158
				l1.647-1.82l-10.054-8.929L87.656,58.855z M86.786,67.96L74.808,81.178c-0.148,0.168-0.361,0.266-0.586,0.276
				c-0.225,0.013-0.446-0.063-0.611-0.211l-0.592-0.527c-0.348-0.312-0.377-0.838-0.066-1.183l11.979-13.22
				c0.15-0.167,0.359-0.267,0.585-0.279c0.222-0.01,0.444,0.064,0.61,0.214l0.591,0.529C87.073,67.083,87.098,67.615,86.786,67.96z
				 M90.268,61.678l0.594,0.527c0.346,0.309,0.376,0.839,0.063,1.184l-0.152,0.168l-0.855,0.944l-0.036,0.039
				c-0.148,0.167-0.359,0.266-0.585,0.277c-0.226,0.013-0.443-0.063-0.61-0.214l-0.596-0.527c-0.169-0.147-0.266-0.357-0.279-0.578
				c-0.013-0.223,0.066-0.442,0.218-0.606l1.041-1.149C89.383,61.398,89.919,61.367,90.268,61.678z M91.032,55.129l-0.756,0.835
				l10.054,8.93l0.76-0.84l1.709-1.886l-10.054-8.926L91.032,55.129z M106.843,53.368l-5.698-5.063
				c-0.579-0.512-1.339-0.776-2.112-0.735c-0.773,0.042-1.504,0.386-2.019,0.958l-3.362,3.709l10.056,8.924l3.358-3.709
				c0.517-0.566,0.786-1.318,0.743-2.086C107.768,54.6,107.419,53.881,106.843,53.368z M103.502,57.446l-6.092-5.41l1.759-1.939
				l6.088,5.408L103.502,57.446z M65.268,95.52l11.559-4.687l-10.052-8.927l-3.458,11.884c-0.155,0.531,0.011,1.101,0.426,1.469
				C64.158,95.626,64.75,95.729,65.268,95.52z M67.695,85.079l5.839,5.189l-4.541,1.842l-2.658-2.36L67.695,85.079z"/>
		</g>
	</g>
</g>
<g id="live_x5F_stream_x5F_read" style="display:none;">
	<g id="shape_36_" style="display:inline;">
		<g>
			<path style="fill:#FFFFFF;" d="M75,146.5c-39.428,0-71.505-32.075-71.505-71.5C3.495,35.575,35.572,3.5,75,3.5
				s71.505,32.075,71.505,71.5C146.505,114.425,114.428,146.5,75,146.5z"/>
		</g>
		<g>
			<path style="fill:#4655A5;" d="M75,4.5c38.877,0,70.505,31.626,70.505,70.5S113.877,145.5,75,145.5S4.495,113.874,4.495,75
				S36.123,4.5,75,4.5 M75,2.5C34.957,2.5,2.495,34.959,2.495,75c0,40.04,32.462,72.5,72.505,72.5
				c40.043,0,72.505-32.46,72.505-72.5C147.505,34.959,115.043,2.5,75,2.5L75,2.5z"/>
		</g>
	</g>
	<g style="display:inline;">
		<path style="fill:#EF4781;" d="M108.093,114.879H41.907c-3.93,0-7.116-3.186-7.116-7.116v-0.301c0-3.93,3.186-7.116,7.116-7.116
			h66.185c3.93,0,7.116,3.186,7.116,7.116v0.301C115.209,111.693,112.023,114.879,108.093,114.879z"/>
		<circle style="fill:#FFFFFF;" cx="75" cy="73.732" r="33.611"/>
		<circle style="fill:#EF4681;" cx="75" cy="68.732" r="33.611"/>
		<circle style="fill:#FFFFFF;" cx="75" cy="68.732" r="12.111"/>
	</g>
</g>
<g id="live_x5F_stream_x5F_unread" style="display:none;">
	<g id="shape_38_" style="display:inline;">
		<g>
			<path style="fill:#EF4781;" d="M75,147.25c-39.841,0-72.255-32.411-72.255-72.25S35.159,2.75,75,2.75
				c39.842,0,72.255,32.411,72.255,72.25S114.842,147.25,75,147.25z"/>
		</g>
		<g>
			<path style="fill:#EF4781;" d="M75,3c39.704,0,72.005,32.299,72.005,72S114.704,147,75,147S2.995,114.701,2.995,75S35.296,3,75,3
				 M75,2.5C34.957,2.5,2.495,34.959,2.495,75c0,40.04,32.461,72.5,72.505,72.5c40.043,0,72.505-32.46,72.505-72.5
				C147.505,34.959,115.043,2.5,75,2.5L75,2.5z"/>
		</g>
	</g>
	<path style="display:inline;fill:#FFFFFF;stroke:#EF4781;stroke-miterlimit:10;" d="M107.942,114.879H42.058
		c-4.013,0-7.267-3.253-7.267-7.267v0c0-4.013,3.253-7.267,7.267-7.267h65.884c4.013,0,7.267,3.253,7.267,7.267v0
		C115.209,111.625,111.955,114.879,107.942,114.879z"/>
	<circle style="display:inline;fill:#EF4781;stroke:#EF4781;stroke-miterlimit:10;" cx="75" cy="73.732" r="33.611"/>
	<circle style="display:inline;fill:#FFFFFF;stroke:#EF4781;stroke-miterlimit:10;" cx="75" cy="68.732" r="33.611"/>
	<circle style="display:inline;fill:#FFFFFF;stroke:#EF4781;stroke-miterlimit:10;" cx="75" cy="68.732" r="12.111"/>
</g>
<g id="event_x5F_timeline_x5F_read" style="display:none;">
	<g id="shape_42_" style="display:inline;">
		<g>
			<circle style="fill:#FFFFFF;" cx="75" cy="75" r="72.5"/>
		</g>
		<g>
			<circle style="fill:none;stroke:#4656A5;stroke-width:2;stroke-miterlimit:10;" cx="75" cy="75" r="72.5"/>
		</g>
	</g>
	<g id="event_icon_6_" style="display:inline;">
		<g>
			<path style="fill:#EF4781;" d="M83.631,49.106H66.369v6.903h17.262V49.106z M80.178,66.363c-1.908,0-3.452,1.544-3.452,3.452
				c0,1.905,1.544,3.451,3.452,3.451c1.905,0,3.452-1.546,3.452-3.451C83.631,67.907,82.087,66.363,80.178,66.363z M69.821,73.266
				c1.906,0,3.452-1.546,3.452-3.451c0-1.908-1.547-3.452-3.452-3.452c-1.906,0-3.452,1.544-3.452,3.452
				C66.369,71.72,67.916,73.266,69.821,73.266z M76.726,80.17c0,1.904,1.547,3.451,3.452,3.451s3.452-1.547,3.452-3.451
				c0-1.908-1.544-3.454-3.452-3.454S76.726,78.261,76.726,80.17z M90.535,56.009c1.905,0,3.452-1.547,3.452-3.452v-6.903
				c0-1.907-1.548-3.452-3.452-3.452c-1.908,0-3.452,1.545-3.452,3.452v6.903C87.083,54.462,88.63,56.009,90.535,56.009z
				 M100.892,49.106H97.44v6.903h3.452v44.87H49.108v-44.87h3.452v-6.903h-3.452c-3.813,0-6.905,3.089-6.905,6.903v44.868
				c0,3.814,3.091,6.904,6.905,6.904h51.784c3.813,0,6.905-3.091,6.905-6.904V56.009C107.797,52.195,104.705,49.106,100.892,49.106z
				 M90.535,73.266c1.905,0,3.452-1.546,3.452-3.451c0-1.908-1.544-3.452-3.452-3.452c-1.908,0-3.452,1.544-3.452,3.452
				C87.083,71.72,88.63,73.266,90.535,73.266z M90.535,83.621c1.905,0,3.452-1.547,3.452-3.451c0-1.908-1.544-3.452-3.452-3.452
				c-1.908,0-3.452,1.543-3.452,3.452C87.083,82.073,88.63,83.621,90.535,83.621z M59.464,73.266c1.906,0,3.452-1.546,3.452-3.451
				c0-1.908-1.547-3.452-3.452-3.452c-1.907,0-3.452,1.544-3.452,3.452C56.012,71.72,57.559,73.266,59.464,73.266z M59.464,83.621
				c1.906,0,3.452-1.547,3.452-3.451c0-1.908-1.547-3.454-3.452-3.454c-1.907,0-3.452,1.546-3.452,3.454
				C56.012,82.073,57.559,83.621,59.464,83.621z M59.464,93.975c1.906,0,3.452-1.547,3.452-3.451c0-1.908-1.547-3.452-3.452-3.452
				c-1.907,0-3.452,1.544-3.452,3.452C56.012,92.428,57.559,93.975,59.464,93.975z M59.464,56.009c1.906,0,3.452-1.547,3.452-3.452
				v-6.903c0-1.907-1.545-3.452-3.452-3.452c-1.906,0-3.452,1.545-3.452,3.452v6.903C56.012,54.462,57.559,56.009,59.464,56.009z
				 M69.821,83.621c1.906,0,3.452-1.547,3.452-3.451c0-1.908-1.545-3.454-3.452-3.454c-1.907,0-3.452,1.546-3.452,3.454
				C66.369,82.073,67.916,83.621,69.821,83.621z M69.821,93.975c1.906,0,3.452-1.547,3.452-3.451c0-1.908-1.547-3.452-3.452-3.452
				c-1.906,0-3.452,1.544-3.452,3.452C66.369,92.428,67.916,93.975,69.821,93.975z"/>
		</g>
	</g>
</g>
<g id="event_x5F_timeline_x5F_unread" style="display:none;">
	<g id="shape_40_" style="display:inline;">
		<g>
			<circle style="fill:#EF4681;" cx="75" cy="75" r="72.5"/>
		</g>
	</g>
	<g id="event_icon_4_" style="display:inline;">
		<g>
			<path style="fill:#FFFFFF;" d="M83.631,49.106H66.369v6.903h17.262V49.106z M69.821,73.266c1.906,0,3.452-1.546,3.452-3.451
				c0-1.908-1.547-3.452-3.452-3.452c-1.906,0-3.452,1.544-3.452,3.452C66.369,71.72,67.916,73.266,69.821,73.266z M76.726,80.17
				c0,1.904,1.547,3.451,3.452,3.451s3.452-1.547,3.452-3.451c0-1.908-1.544-3.454-3.452-3.454S76.726,78.261,76.726,80.17z
				 M80.178,66.363c-1.908,0-3.452,1.544-3.452,3.452c0,1.905,1.544,3.451,3.452,3.451c1.905,0,3.452-1.546,3.452-3.451
				C83.631,67.907,82.087,66.363,80.178,66.363z M100.892,49.106H97.44v6.903h3.452v44.87H49.108v-44.87h3.452v-6.903h-3.452
				c-3.813,0-6.905,3.089-6.905,6.903v44.868c0,3.814,3.091,6.904,6.905,6.904h51.784c3.813,0,6.905-3.091,6.905-6.904V56.009
				C107.797,52.195,104.705,49.106,100.892,49.106z M90.535,83.621c1.905,0,3.452-1.547,3.452-3.451
				c0-1.908-1.544-3.452-3.452-3.452c-1.908,0-3.452,1.543-3.452,3.452C87.083,82.073,88.63,83.621,90.535,83.621z M90.535,73.266
				c1.905,0,3.452-1.546,3.452-3.451c0-1.908-1.544-3.452-3.452-3.452c-1.908,0-3.452,1.544-3.452,3.452
				C87.083,71.72,88.63,73.266,90.535,73.266z M90.535,56.009c1.905,0,3.452-1.547,3.452-3.452v-6.903
				c0-1.907-1.548-3.452-3.452-3.452c-1.908,0-3.452,1.545-3.452,3.452v6.903C87.083,54.462,88.63,56.009,90.535,56.009z
				 M59.464,83.621c1.906,0,3.452-1.547,3.452-3.451c0-1.908-1.547-3.454-3.452-3.454c-1.907,0-3.452,1.546-3.452,3.454
				C56.012,82.073,57.559,83.621,59.464,83.621z M69.821,83.621c1.906,0,3.452-1.547,3.452-3.451c0-1.908-1.545-3.454-3.452-3.454
				c-1.907,0-3.452,1.546-3.452,3.454C66.369,82.073,67.916,83.621,69.821,83.621z M59.464,93.975c1.906,0,3.452-1.547,3.452-3.451
				c0-1.908-1.547-3.452-3.452-3.452c-1.907,0-3.452,1.544-3.452,3.452C56.012,92.428,57.559,93.975,59.464,93.975z M59.464,73.266
				c1.906,0,3.452-1.546,3.452-3.451c0-1.908-1.547-3.452-3.452-3.452c-1.907,0-3.452,1.544-3.452,3.452
				C56.012,71.72,57.559,73.266,59.464,73.266z M59.464,56.009c1.906,0,3.452-1.547,3.452-3.452v-6.903
				c0-1.907-1.545-3.452-3.452-3.452c-1.906,0-3.452,1.545-3.452,3.452v6.903C56.012,54.462,57.559,56.009,59.464,56.009z
				 M69.821,93.975c1.906,0,3.452-1.547,3.452-3.451c0-1.908-1.547-3.452-3.452-3.452c-1.906,0-3.452,1.544-3.452,3.452
				C66.369,92.428,67.916,93.975,69.821,93.975z"/>
		</g>
	</g>
</g>
<g id="birthday_x5F_unread" style="display:none;">
	<g id="birthday_icon" style="display:inline;">
		<g>
			<path style="fill:#EF4681;" d="M125.709,87.173c-4.221,2.854-9.091,2.764-11.924,0.515c0.033,3.682-2.849,7.698-7.479,9.39
				c-4.625,1.712-9.266,0.469-11.499-2.395c-0.779,3.581-4.396,6.792-9.222,7.34c-4.837,0.583-9.051-1.711-10.579-5.013
				c-1.533,3.302-5.75,5.596-10.582,5.013c-4.826-0.558-8.462-3.759-9.219-7.34c-2.222,2.865-6.861,4.108-11.496,2.395
				c-4.63-1.691-7.509-5.708-7.487-9.39c-2.832,2.249-7.703,2.328-11.919-0.515c-0.504-0.335-0.948-0.693-1.384-1.075v43.583
				c0,9.847,23.32,17.82,52.087,17.82c28.762,0,52.076-7.989,52.076-17.82V86.098C126.651,86.474,126.199,86.838,125.709,87.173z
				 M75,92.992c28.756,0,52.077-7.99,52.077-17.829c0-7.763-14.457-14.33-34.634-16.791v13.022c0,6.726-9.005,9.121-17.443,9.121
				c-8.435,0-17.442-2.395-17.442-9.121V58.372c-20.166,2.467-34.634,9.027-34.634,16.791C22.924,85.013,46.238,92.992,75,92.992z
				 M75,75.807c7.098,0,12.85-1.973,12.85-4.401V29.747c0-1.525-2.244-2.859-5.649-3.652c-1.509,2.618-3.998,3.816-6.659,4.838
				c-0.793,0.302-1.574,0.444-2.361,0.444c-2.443,0-4.903-1.614-6.08-5.08c-2.985,0.808-4.949,2.034-4.949,3.45v41.659
				C62.153,73.834,67.905,75.807,75,75.807z M74.469,27.976c3.8-1.444,6.109-2.74,6.109-8.415c0-4.253-3.53-14.76-5.45-17.061
				c-1.912,2.775-5.695,14.549-5.695,18.992C69.433,26.331,71.587,29.075,74.469,27.976z"/>
		</g>
	</g>
</g>
<g id="birthday_x5F_read" style="display:none;">
	<g id="birthday_icon_2_" style="display:inline;">
		<g>
			<path style="fill:#FFFFFF;" d="M125.709,87.173c-4.221,2.854-9.091,2.764-11.924,0.515c0.033,3.682-2.849,7.698-7.479,9.39
				c-4.625,1.712-9.266,0.469-11.499-2.395c-0.779,3.581-4.396,6.792-9.222,7.34c-4.837,0.583-9.051-1.711-10.579-5.013
				c-1.533,3.302-5.75,5.596-10.582,5.013c-4.826-0.558-8.462-3.759-9.219-7.34c-2.222,2.865-6.861,4.108-11.496,2.395
				c-4.63-1.691-7.509-5.708-7.487-9.39c-2.832,2.249-7.703,2.328-11.919-0.515c-0.504-0.335-0.948-0.693-1.384-1.075v43.583
				c0,9.847,23.32,17.82,52.087,17.82c28.762,0,52.076-7.989,52.076-17.82V86.098C126.651,86.474,126.199,86.838,125.709,87.173z
				 M75,92.992c28.756,0,52.077-7.99,52.077-17.829c0-7.763-14.457-14.33-34.634-16.791v13.022c0,6.726-9.005,9.121-17.443,9.121
				c-8.435,0-17.442-2.395-17.442-9.121V58.372c-20.166,2.467-34.634,9.027-34.634,16.791C22.924,85.013,46.238,92.992,75,92.992z
				 M75,75.807c7.098,0,12.85-1.973,12.85-4.401V29.747c0-1.525-2.244-2.859-5.649-3.652c-1.509,2.618-3.998,3.816-6.659,4.838
				c-0.793,0.302-1.574,0.444-2.361,0.444c-2.443,0-4.903-1.614-6.08-5.08c-2.985,0.808-4.949,2.034-4.949,3.45v41.659
				C62.153,73.834,67.905,75.807,75,75.807z M74.469,27.976c3.8-1.444,6.109-2.74,6.109-8.415c0-4.253-3.53-14.76-5.45-17.061
				c-1.912,2.775-5.695,14.549-5.695,18.992C69.433,26.331,71.587,29.075,74.469,27.976z"/>
		</g>
	</g>
</g>
<g id="award_x5F_unread" style="display:none;">
	<g id="awards_icon" style="display:inline;">
		<g>
			<path style="fill:#EF4781;" d="M114.41,90.787c0.307-1.006,0.516-2.124,0.525-3.419c0.084-5.688,2.506-9.966,7.297-12.868
				c4.786-2.907,5.817-6.834,3.102-11.783c-2.724-4.954-2.724-9.907,0-14.86c2.72-4.954,1.684-8.875-3.102-11.782
				c-4.791-2.897-7.213-7.19-7.297-12.864c-0.075-5.664-2.889-8.549-8.457-8.617c-5.568-0.077-9.772-2.549-12.629-7.43
				c-2.844-4.877-6.692-5.932-11.55-3.151c-4.87,2.761-9.732,2.761-14.585,0C62.857,1.232,59,2.287,56.142,7.164
				c-2.84,4.881-7.052,7.353-12.629,7.43c-5.564,0.068-8.39,2.948-8.461,8.613c-0.08,5.678-2.502,9.966-7.293,12.863
				c-4.777,2.912-5.812,6.833-3.097,11.787c2.729,4.95,2.729,9.903,0,14.86c-2.72,4.949-1.68,8.875,3.102,11.783
				c4.791,2.897,7.213,7.18,7.293,12.868c0.018,1.027,0.218,1.86,0.418,2.717l-21.962,43.962l18.344-2.091L42.011,147.5
				c0,0,13.309-28.287,18.784-39.792c2.013,0.688,4.315,0.339,6.914-1.137c4.853-2.776,9.714-2.776,14.585,0
				c2.738,1.563,5.155,1.867,7.252,0.987l22.544,39.494l6.337-16.741l18.06,2.386L114.41,90.787z M74.998,89.147
				c-18.859,0-34.156-15.576-34.156-34.783c0-19.222,15.296-34.803,34.156-34.803s34.151,15.581,34.151,34.803
				C109.149,73.571,93.853,89.147,74.998,89.147z M75.002,27.327c-14.829,0-26.85,12.249-26.85,27.354
				c0,15.109,12.021,27.358,26.85,27.358c14.825,0,26.845-12.249,26.845-27.358C101.848,39.576,89.827,27.327,75.002,27.327z"/>
		</g>
		<g>
			<path style="fill:none;stroke:#EF4781;stroke-miterlimit:10;" d="M114.41,90.787c0.307-1.006,0.516-2.124,0.525-3.419
				c0.084-5.688,2.506-9.966,7.297-12.868c4.786-2.907,5.817-6.834,3.102-11.783c-2.724-4.954-2.724-9.907,0-14.86
				c2.72-4.954,1.684-8.875-3.102-11.782c-4.791-2.897-7.213-7.19-7.297-12.864c-0.075-5.664-2.889-8.549-8.457-8.617
				c-5.568-0.077-9.772-2.549-12.629-7.43c-2.844-4.877-6.692-5.932-11.55-3.151c-4.87,2.761-9.732,2.761-14.585,0
				C62.857,1.232,59,2.287,56.142,7.164c-2.84,4.881-7.052,7.353-12.629,7.43c-5.564,0.068-8.39,2.948-8.461,8.613
				c-0.08,5.678-2.502,9.966-7.293,12.863c-4.777,2.912-5.812,6.833-3.097,11.787c2.729,4.95,2.729,9.903,0,14.86
				c-2.72,4.949-1.68,8.875,3.102,11.783c4.791,2.897,7.213,7.18,7.293,12.868c0.018,1.027,0.218,1.86,0.418,2.717l-21.962,43.962
				l18.344-2.091L42.011,147.5c0,0,13.309-28.287,18.784-39.792c2.013,0.688,4.315,0.339,6.914-1.137
				c4.853-2.776,9.714-2.776,14.585,0c2.738,1.563,5.155,1.867,7.252,0.987l22.544,39.494l6.337-16.741l18.06,2.386L114.41,90.787z
				 M74.998,89.147c-18.859,0-34.156-15.576-34.156-34.783c0-19.222,15.296-34.803,34.156-34.803s34.151,15.581,34.151,34.803
				C109.149,73.571,93.853,89.147,74.998,89.147z M75.002,27.327c-14.829,0-26.85,12.249-26.85,27.354
				c0,15.109,12.021,27.358,26.85,27.358c14.825,0,26.845-12.249,26.845-27.358C101.848,39.576,89.827,27.327,75.002,27.327z"/>
		</g>
	</g>
</g>
<g id="award_x5F_read" style="display:none;">
	<g id="awards_icon_2_" style="display:inline;">
		<g>
			<path style="fill:#FFFFFF;" d="M114.41,90.787c0.307-1.006,0.516-2.124,0.525-3.419c0.084-5.688,2.506-9.966,7.297-12.868
				c4.786-2.907,5.817-6.834,3.102-11.783c-2.724-4.954-2.724-9.907,0-14.86c2.72-4.954,1.684-8.875-3.102-11.782
				c-4.791-2.897-7.213-7.19-7.297-12.864c-0.075-5.664-2.889-8.549-8.457-8.617c-5.568-0.077-9.772-2.549-12.629-7.43
				c-2.844-4.877-6.692-5.932-11.55-3.151c-4.87,2.761-9.732,2.761-14.585,0C62.857,1.232,59,2.287,56.142,7.164
				c-2.84,4.881-7.052,7.353-12.629,7.43c-5.564,0.068-8.39,2.948-8.461,8.613c-0.08,5.678-2.502,9.966-7.293,12.863
				c-4.777,2.912-5.812,6.833-3.097,11.787c2.729,4.95,2.729,9.903,0,14.86c-2.72,4.949-1.68,8.875,3.102,11.783
				c4.791,2.897,7.213,7.18,7.293,12.868c0.018,1.027,0.218,1.86,0.418,2.717l-21.962,43.962l18.344-2.091L42.011,147.5
				c0,0,13.309-28.287,18.784-39.792c2.013,0.688,4.315,0.339,6.914-1.137c4.853-2.776,9.714-2.776,14.585,0
				c2.738,1.563,5.155,1.867,7.252,0.987l22.544,39.494l6.337-16.741l18.06,2.386L114.41,90.787z M74.998,89.147
				c-18.859,0-34.156-15.576-34.156-34.783c0-19.222,15.296-34.803,34.156-34.803s34.151,15.581,34.151,34.803
				C109.149,73.571,93.853,89.147,74.998,89.147z M75.002,27.327c-14.829,0-26.85,12.249-26.85,27.354
				c0,15.109,12.021,27.358,26.85,27.358c14.825,0,26.845-12.249,26.845-27.358C101.848,39.576,89.827,27.327,75.002,27.327z"/>
		</g>
		<g>
			<path style="fill:none;stroke:#FFFFFF;stroke-miterlimit:10;" d="M114.41,90.787c0.307-1.006,0.516-2.124,0.525-3.419
				c0.084-5.688,2.506-9.966,7.297-12.868c4.786-2.907,5.817-6.834,3.102-11.783c-2.724-4.954-2.724-9.907,0-14.86
				c2.72-4.954,1.684-8.875-3.102-11.782c-4.791-2.897-7.213-7.19-7.297-12.864c-0.075-5.664-2.889-8.549-8.457-8.617
				c-5.568-0.077-9.772-2.549-12.629-7.43c-2.844-4.877-6.692-5.932-11.55-3.151c-4.87,2.761-9.732,2.761-14.585,0
				C62.857,1.232,59,2.287,56.142,7.164c-2.84,4.881-7.052,7.353-12.629,7.43c-5.564,0.068-8.39,2.948-8.461,8.613
				c-0.08,5.678-2.502,9.966-7.293,12.863c-4.777,2.912-5.812,6.833-3.097,11.787c2.729,4.95,2.729,9.903,0,14.86
				c-2.72,4.949-1.68,8.875,3.102,11.783c4.791,2.897,7.213,7.18,7.293,12.868c0.018,1.027,0.218,1.86,0.418,2.717l-21.962,43.962
				l18.344-2.091L42.011,147.5c0,0,13.309-28.287,18.784-39.792c2.013,0.688,4.315,0.339,6.914-1.137
				c4.853-2.776,9.714-2.776,14.585,0c2.738,1.563,5.155,1.867,7.252,0.987l22.544,39.494l6.337-16.741l18.06,2.386L114.41,90.787z
				 M74.998,89.147c-18.859,0-34.156-15.576-34.156-34.783c0-19.222,15.296-34.803,34.156-34.803s34.151,15.581,34.151,34.803
				C109.149,73.571,93.853,89.147,74.998,89.147z M75.002,27.327c-14.829,0-26.85,12.249-26.85,27.354
				c0,15.109,12.021,27.358,26.85,27.358c14.825,0,26.845-12.249,26.845-27.358C101.848,39.576,89.827,27.327,75.002,27.327z"/>
		</g>
	</g>
</g>
<g id="event_x5F_unread" style="display:none;">
	<g id="event_icon" style="display:inline;">
		<g>
			<path style="fill:#EF4781;" d="M86.395,55.922c-4.199,0-7.597,3.414-7.597,7.631c0,4.213,3.398,7.632,7.597,7.632
				c4.191,0,7.597-3.418,7.597-7.632C93.992,59.336,90.594,55.922,86.395,55.922z M63.605,71.184c4.193,0,7.597-3.418,7.597-7.632
				c0-4.217-3.403-7.631-7.597-7.631c-4.193,0-7.597,3.414-7.597,7.631C56.008,67.766,59.412,71.184,63.605,71.184z M78.798,86.447
				c0,4.211,3.405,7.632,7.597,7.632c4.191,0,7.597-3.422,7.597-7.632c0-4.218-3.398-7.635-7.597-7.635S78.798,82.229,78.798,86.447
				z M109.185,33.027c4.192,0,7.597-3.419,7.597-7.631V10.132c0-4.217-3.405-7.632-7.597-7.632c-4.199,0-7.597,3.415-7.597,7.632
				v15.263C101.589,29.608,104.994,33.027,109.185,33.027z M109.185,71.184c4.192,0,7.597-3.418,7.597-7.632
				c0-4.217-3.398-7.631-7.597-7.631s-7.597,3.414-7.597,7.631C101.589,67.766,104.994,71.184,109.185,71.184z M109.185,94.08
				c4.192,0,7.597-3.422,7.597-7.632c0-4.218-3.398-7.631-7.597-7.631s-7.597,3.413-7.597,7.631
				C101.589,90.658,104.994,94.08,109.185,94.08z M93.992,17.764H56.008v15.263h37.984V17.764z M40.815,33.027
				c4.193,0,7.597-3.419,7.597-7.631V10.132c0-4.217-3.4-7.632-7.597-7.632c-4.193,0-7.597,3.415-7.597,7.632v15.263
				C33.218,29.608,36.621,33.027,40.815,33.027z M40.815,116.974c4.193,0,7.597-3.42,7.597-7.631c0-4.218-3.403-7.632-7.597-7.632
				c-4.197,0-7.597,3.414-7.597,7.632C33.218,113.554,36.621,116.974,40.815,116.974z M40.815,94.08
				c4.193,0,7.597-3.422,7.597-7.632c0-4.218-3.403-7.635-7.597-7.635c-4.197,0-7.597,3.417-7.597,7.635
				C33.218,90.658,36.621,94.08,40.815,94.08z M63.605,94.08c4.193,0,7.597-3.422,7.597-7.632c0-4.218-3.4-7.635-7.597-7.635
				s-7.597,3.417-7.597,7.635C56.008,90.658,59.412,94.08,63.605,94.08z M131.975,17.764h-7.597v15.263h7.597v99.211H18.025V33.027
				h7.597V17.764h-7.597c-8.391,0-15.193,6.831-15.193,15.263v99.207c0,8.433,6.803,15.266,15.193,15.266h113.951
				c8.39,0,15.193-6.833,15.193-15.266V33.027C147.169,24.595,140.366,17.764,131.975,17.764z M63.605,116.974
				c4.193,0,7.597-3.42,7.597-7.631c0-4.218-3.403-7.632-7.597-7.632c-4.193,0-7.597,3.414-7.597,7.632
				C56.008,113.554,59.412,116.974,63.605,116.974z M40.815,71.184c4.193,0,7.597-3.418,7.597-7.632
				c0-4.217-3.403-7.631-7.597-7.631c-4.197,0-7.597,3.414-7.597,7.631C33.218,67.766,36.621,71.184,40.815,71.184z"/>
		</g>
		<g>
			<path style="fill:none;stroke:#EF4781;stroke-miterlimit:10;" d="M86.395,55.922c-4.199,0-7.597,3.414-7.597,7.631
				c0,4.213,3.398,7.632,7.597,7.632c4.191,0,7.597-3.418,7.597-7.632C93.992,59.336,90.594,55.922,86.395,55.922z M63.605,71.184
				c4.193,0,7.597-3.418,7.597-7.632c0-4.217-3.403-7.631-7.597-7.631c-4.193,0-7.597,3.414-7.597,7.631
				C56.008,67.766,59.412,71.184,63.605,71.184z M78.798,86.447c0,4.211,3.405,7.632,7.597,7.632c4.191,0,7.597-3.422,7.597-7.632
				c0-4.218-3.398-7.635-7.597-7.635S78.798,82.229,78.798,86.447z M109.185,33.027c4.192,0,7.597-3.419,7.597-7.631V10.132
				c0-4.217-3.405-7.632-7.597-7.632c-4.199,0-7.597,3.415-7.597,7.632v15.263C101.589,29.608,104.994,33.027,109.185,33.027z
				 M109.185,71.184c4.192,0,7.597-3.418,7.597-7.632c0-4.217-3.398-7.631-7.597-7.631s-7.597,3.414-7.597,7.631
				C101.589,67.766,104.994,71.184,109.185,71.184z M109.185,94.08c4.192,0,7.597-3.422,7.597-7.632
				c0-4.218-3.398-7.631-7.597-7.631s-7.597,3.413-7.597,7.631C101.589,90.658,104.994,94.08,109.185,94.08z M93.992,17.764H56.008
				v15.263h37.984V17.764z M40.815,33.027c4.193,0,7.597-3.419,7.597-7.631V10.132c0-4.217-3.4-7.632-7.597-7.632
				c-4.193,0-7.597,3.415-7.597,7.632v15.263C33.218,29.608,36.621,33.027,40.815,33.027z M40.815,116.974
				c4.193,0,7.597-3.42,7.597-7.631c0-4.218-3.403-7.632-7.597-7.632c-4.197,0-7.597,3.414-7.597,7.632
				C33.218,113.554,36.621,116.974,40.815,116.974z M40.815,94.08c4.193,0,7.597-3.422,7.597-7.632c0-4.218-3.403-7.635-7.597-7.635
				c-4.197,0-7.597,3.417-7.597,7.635C33.218,90.658,36.621,94.08,40.815,94.08z M63.605,94.08c4.193,0,7.597-3.422,7.597-7.632
				c0-4.218-3.4-7.635-7.597-7.635s-7.597,3.417-7.597,7.635C56.008,90.658,59.412,94.08,63.605,94.08z M131.975,17.764h-7.597
				v15.263h7.597v99.211H18.025V33.027h7.597V17.764h-7.597c-8.391,0-15.193,6.831-15.193,15.263v99.207
				c0,8.433,6.803,15.266,15.193,15.266h113.951c8.39,0,15.193-6.833,15.193-15.266V33.027
				C147.169,24.595,140.366,17.764,131.975,17.764z M63.605,116.974c4.193,0,7.597-3.42,7.597-7.631
				c0-4.218-3.403-7.632-7.597-7.632c-4.193,0-7.597,3.414-7.597,7.632C56.008,113.554,59.412,116.974,63.605,116.974z
				 M40.815,71.184c4.193,0,7.597-3.418,7.597-7.632c0-4.217-3.403-7.631-7.597-7.631c-4.197,0-7.597,3.414-7.597,7.631
				C33.218,67.766,36.621,71.184,40.815,71.184z"/>
		</g>
	</g>
</g>
<g id="event_x5F_read" style="display:none;">
	<g id="event_icon_2_" style="display:inline;">
		<g>
			<path style="fill:#FFFFFF;" d="M63.605,71.184c4.193,0,7.597-3.418,7.597-7.632c0-4.217-3.403-7.631-7.597-7.631
				c-4.193,0-7.597,3.414-7.597,7.631C56.008,67.766,59.412,71.184,63.605,71.184z M86.395,55.922c-4.199,0-7.597,3.414-7.597,7.631
				c0,4.213,3.398,7.632,7.597,7.632c4.191,0,7.597-3.418,7.597-7.632C93.992,59.336,90.594,55.922,86.395,55.922z M78.798,86.447
				c0,4.211,3.405,7.632,7.597,7.632c4.191,0,7.597-3.422,7.597-7.632c0-4.218-3.398-7.635-7.597-7.635S78.798,82.229,78.798,86.447
				z M93.992,17.764H56.008v15.263h37.984V17.764z M109.185,94.08c4.192,0,7.597-3.422,7.597-7.632c0-4.218-3.398-7.631-7.597-7.631
				s-7.597,3.413-7.597,7.631C101.589,90.658,104.994,94.08,109.185,94.08z M109.185,33.027c4.192,0,7.597-3.419,7.597-7.631V10.132
				c0-4.217-3.405-7.632-7.597-7.632c-4.199,0-7.597,3.415-7.597,7.632v15.263C101.589,29.608,104.994,33.027,109.185,33.027z
				 M109.185,71.184c4.192,0,7.597-3.418,7.597-7.632c0-4.217-3.398-7.631-7.597-7.631s-7.597,3.414-7.597,7.631
				C101.589,67.766,104.994,71.184,109.185,71.184z M40.815,94.08c4.193,0,7.597-3.422,7.597-7.632c0-4.218-3.403-7.635-7.597-7.635
				c-4.197,0-7.597,3.417-7.597,7.635C33.218,90.658,36.621,94.08,40.815,94.08z M40.815,116.974c4.193,0,7.597-3.42,7.597-7.631
				c0-4.218-3.403-7.632-7.597-7.632c-4.197,0-7.597,3.414-7.597,7.632C33.218,113.554,36.621,116.974,40.815,116.974z
				 M40.815,71.184c4.193,0,7.597-3.418,7.597-7.632c0-4.217-3.403-7.631-7.597-7.631c-4.197,0-7.597,3.414-7.597,7.631
				C33.218,67.766,36.621,71.184,40.815,71.184z M131.975,17.764h-7.597v15.263h7.597v99.211H18.025V33.027h7.597V17.764h-7.597
				c-8.391,0-15.193,6.831-15.193,15.263v99.207c0,8.433,6.803,15.266,15.193,15.266h113.951c8.39,0,15.193-6.833,15.193-15.266
				V33.027C147.169,24.595,140.366,17.764,131.975,17.764z M63.605,94.08c4.193,0,7.597-3.422,7.597-7.632
				c0-4.218-3.4-7.635-7.597-7.635s-7.597,3.417-7.597,7.635C56.008,90.658,59.412,94.08,63.605,94.08z M63.605,116.974
				c4.193,0,7.597-3.42,7.597-7.631c0-4.218-3.403-7.632-7.597-7.632c-4.193,0-7.597,3.414-7.597,7.632
				C56.008,113.554,59.412,116.974,63.605,116.974z M40.815,33.027c4.193,0,7.597-3.419,7.597-7.631V10.132
				c0-4.217-3.4-7.632-7.597-7.632c-4.193,0-7.597,3.415-7.597,7.632v15.263C33.218,29.608,36.621,33.027,40.815,33.027z"/>
		</g>
		<g>
			<path style="fill:none;stroke:#FFFFFF;stroke-miterlimit:10;" d="M63.605,71.184c4.193,0,7.597-3.418,7.597-7.632
				c0-4.217-3.403-7.631-7.597-7.631c-4.193,0-7.597,3.414-7.597,7.631C56.008,67.766,59.412,71.184,63.605,71.184z M86.395,55.922
				c-4.199,0-7.597,3.414-7.597,7.631c0,4.213,3.398,7.632,7.597,7.632c4.191,0,7.597-3.418,7.597-7.632
				C93.992,59.336,90.594,55.922,86.395,55.922z M78.798,86.447c0,4.211,3.405,7.632,7.597,7.632c4.191,0,7.597-3.422,7.597-7.632
				c0-4.218-3.398-7.635-7.597-7.635S78.798,82.229,78.798,86.447z M93.992,17.764H56.008v15.263h37.984V17.764z M109.185,94.08
				c4.192,0,7.597-3.422,7.597-7.632c0-4.218-3.398-7.631-7.597-7.631s-7.597,3.413-7.597,7.631
				C101.589,90.658,104.994,94.08,109.185,94.08z M109.185,33.027c4.192,0,7.597-3.419,7.597-7.631V10.132
				c0-4.217-3.405-7.632-7.597-7.632c-4.199,0-7.597,3.415-7.597,7.632v15.263C101.589,29.608,104.994,33.027,109.185,33.027z
				 M109.185,71.184c4.192,0,7.597-3.418,7.597-7.632c0-4.217-3.398-7.631-7.597-7.631s-7.597,3.414-7.597,7.631
				C101.589,67.766,104.994,71.184,109.185,71.184z M40.815,94.08c4.193,0,7.597-3.422,7.597-7.632c0-4.218-3.403-7.635-7.597-7.635
				c-4.197,0-7.597,3.417-7.597,7.635C33.218,90.658,36.621,94.08,40.815,94.08z M40.815,116.974c4.193,0,7.597-3.42,7.597-7.631
				c0-4.218-3.403-7.632-7.597-7.632c-4.197,0-7.597,3.414-7.597,7.632C33.218,113.554,36.621,116.974,40.815,116.974z
				 M40.815,71.184c4.193,0,7.597-3.418,7.597-7.632c0-4.217-3.403-7.631-7.597-7.631c-4.197,0-7.597,3.414-7.597,7.631
				C33.218,67.766,36.621,71.184,40.815,71.184z M131.975,17.764h-7.597v15.263h7.597v99.211H18.025V33.027h7.597V17.764h-7.597
				c-8.391,0-15.193,6.831-15.193,15.263v99.207c0,8.433,6.803,15.266,15.193,15.266h113.951c8.39,0,15.193-6.833,15.193-15.266
				V33.027C147.169,24.595,140.366,17.764,131.975,17.764z M63.605,94.08c4.193,0,7.597-3.422,7.597-7.632
				c0-4.218-3.4-7.635-7.597-7.635s-7.597,3.417-7.597,7.635C56.008,90.658,59.412,94.08,63.605,94.08z M63.605,116.974
				c4.193,0,7.597-3.42,7.597-7.631c0-4.218-3.403-7.632-7.597-7.632c-4.193,0-7.597,3.414-7.597,7.632
				C56.008,113.554,59.412,116.974,63.605,116.974z M40.815,33.027c4.193,0,7.597-3.419,7.597-7.631V10.132
				c0-4.217-3.4-7.632-7.597-7.632c-4.193,0-7.597,3.415-7.597,7.632v15.263C33.218,29.608,36.621,33.027,40.815,33.027z"/>
		</g>
	</g>
</g>
</svg>
