<?xml version="1.0" encoding="iso-8859-1"?>
<!-- Generator: Adobe Illustrator 19.1.0, SVG Export Plug-In . SVG Version: 6.00 Build 0)  -->
<svg version="1.1" xmlns="http://www.w3.org/2000/svg" xmlns:xlink="http://www.w3.org/1999/xlink" x="0px" y="0px"
	 viewBox="0 0 144.99 145" style="enable-background:new 0 0 144.99 145;" xml:space="preserve">
<g id="quiz_x5F_unread">
	<g id="shape_30_">
		<g>
			<path style="fill:#4555A5;" d="M72.495,144.75c-39.836,0-72.245-32.411-72.245-72.25c0-39.839,32.409-72.25,72.245-72.25
				S144.74,32.662,144.74,72.5C144.74,112.339,112.331,144.75,72.495,144.75z"/>
		</g>
		<g>
			<path style="fill:#4555A5;" d="M72.495,0.5c39.698,0,71.995,32.299,71.995,72c0,39.701-32.297,72-71.995,72S0.5,112.201,0.5,72.5
				C0.5,32.799,32.797,0.5,72.495,0.5 M72.495,0C32.457,0,0,32.459,0,72.5C0,112.54,32.457,145,72.495,145
				c40.038,0,72.495-32.46,72.495-72.5C144.99,32.459,112.533,0,72.495,0L72.495,0z"/>
		</g>
	</g>
	<g id="quiz_icon_2_">
		<g>
			<path style="fill:#FFFFFF;" d="M72.041,47.519h-2.252c-9.577,0.599-17.213,8.521-17.213,18.202
				c0,6.655,2.969,11.972,8.096,15.115v5.237c0,1.529,0.574,2.121,1.47,2.71c0.223,0.143,0.365,0.387,0.381,0.654
				c0.016,0.266,0.042,0.61-0.298,0.692c-1.388,0-1.384,1.505-1.384,1.505c0,0.61,0,3.376,0,3.376c0,0.756,0.618,1.367,1.384,1.367
				h0.926c0.74,0,1.279,0.605,1.279,0.605s3.255,2.633,6.486,2.633c3.276,0,6.484-2.633,6.484-2.633s0.539-0.605,1.279-0.605h0.926
				c0.768,0,1.384-0.611,1.384-1.367c0,0,0-2.764,0-3.376c0,0,0.004-1.505-1.384-1.505c-0.339-0.08-0.312-0.43-0.296-0.692
				c0.02-0.267,0.158-0.511,0.381-0.654c0.894-0.59,1.469-1.179,1.469-2.71v-5.237c5.128-3.142,8.096-8.46,8.096-15.115
				C89.254,56.04,81.622,48.117,72.041,47.519z M77.311,76.874l-1.032,0.53v4.86c0,0.832-0.582,1.541-1.399,1.716l-2.175,0.453
				c-0.367,0.081-2.12,0.367-3.576,0l-2.175-0.453c-0.817-0.175-1.399-0.884-1.399-1.716v-4.861l-1.032-0.53
				c-5.183-2.636-6.271-7.344-6.271-10.821c0-6.973,5.674-12.645,12.666-12.668c6.989,0.023,12.664,5.696,12.664,12.668
				C83.58,69.531,82.492,74.239,77.311,76.874z M94.644,50.092c0.069-0.447-0.057-0.902-0.347-1.259
				c-0.17-0.211-0.343-0.418-0.517-0.627c-0.296-0.346-0.72-0.557-1.182-0.582c-0.452-0.025-0.904,0.138-1.236,0.449l-2.97,2.794
				c-0.624,0.596-0.681,1.571-0.132,2.232c0.037,0.039,0.065,0.078,0.103,0.119c0.545,0.668,1.522,0.805,2.236,0.308l3.353-2.327
				C94.325,50.94,94.575,50.54,94.644,50.092z M71.24,45.317c0.049-0.002,0.101-0.002,0.15-0.002
				c0.868-0.006,1.587-0.675,1.642-1.535l0.263-4.046c0.03-0.451-0.128-0.894-0.446-1.224c-0.308-0.332-0.748-0.52-1.202-0.522
				c-0.276,0-0.549,0.002-0.823,0.008c-0.456,0.011-0.89,0.209-1.194,0.547c-0.304,0.338-0.456,0.786-0.417,1.236l0.353,4.04
				C69.641,44.674,70.371,45.328,71.24,45.317z M50.541,71.611c-0.199-0.84-1.018-1.373-1.877-1.24l-4.048,0.658
				c-0.452,0.073-0.853,0.325-1.109,0.7c-0.255,0.37-0.345,0.837-0.247,1.276c0.059,0.264,0.124,0.529,0.193,0.787
				c0.112,0.441,0.403,0.812,0.803,1.025c0.401,0.217,0.874,0.272,1.311,0.121l3.904-1.239c0.825-0.266,1.311-1.113,1.105-1.949
				C50.564,71.712,50.552,71.659,50.541,71.611z M54.472,53.625c0.034-0.041,0.063-0.082,0.097-0.121
				c0.537-0.68,0.452-1.651-0.191-2.228l-3.034-2.723c-0.339-0.304-0.79-0.457-1.245-0.422c-0.454,0.037-0.876,0.256-1.163,0.607
				c-0.174,0.213-0.341,0.425-0.507,0.642c-0.276,0.363-0.389,0.818-0.312,1.265c0.077,0.445,0.336,0.838,0.715,1.092l3.413,2.247
				C52.966,54.461,53.941,54.303,54.472,53.625z M99.741,71.158c-0.266-0.368-0.671-0.613-1.123-0.678l-4.054-0.567
				c-0.861-0.12-1.67,0.439-1.851,1.279c-0.02,0.043-0.03,0.105-0.041,0.152c-0.199,0.839,0.306,1.669,1.143,1.917l3.924,1.155
				c0.446,0.126,0.914,0.071,1.307-0.147c0.393-0.229,0.679-0.61,0.782-1.049c0.061-0.271,0.12-0.529,0.174-0.788
				C100.102,71.985,100.003,71.527,99.741,71.158z"/>
		</g>
	</g>
</g>
<g id="Layer_1">
</g>
</svg>
