<?xml version="1.0" encoding="iso-8859-1"?>
<!-- Generator: Adobe Illustrator 19.1.0, SVG Export Plug-In . SVG Version: 6.00 Build 0)  -->
<svg version="1.1" xmlns="http://www.w3.org/2000/svg" xmlns:xlink="http://www.w3.org/1999/xlink" x="0px" y="0px"
	 viewBox="0 0 145.01 145" style="enable-background:new 0 0 145.01 145;" xml:space="preserve">
<g id="text_x5F_unread">
	<g id="shape_26_">
		<g>
			<path style="fill:#F1592B;" d="M72.505,144.75c-39.841,0-72.255-32.411-72.255-72.25S32.664,0.25,72.505,0.25
				c39.842,0,72.255,32.411,72.255,72.25S112.347,144.75,72.505,144.75z"/>
		</g>
		<g>
			<path style="fill:#F1592B;" d="M72.505,0.5c39.704,0,72.005,32.299,72.005,72s-32.301,72-72.005,72S0.5,112.201,0.5,72.5
				S32.801,0.5,72.505,0.5 M72.505,0C32.461,0,0,32.459,0,72.5C0,112.54,32.461,145,72.505,145c40.043,0,72.505-32.46,72.505-72.5
				C145.01,32.459,112.548,0,72.505,0L72.505,0z"/>
		</g>
	</g>
	<g id="text_icon_2_">
		<g>
			<polygon style="fill:#FFFFFF;" points="46.61,39.705 46.61,55.638 50.769,55.638 51.776,48.755 69.627,48.755 69.627,97.323 
				63.381,97.323 63.381,101.852 85.085,101.852 85.085,97.323 78.837,97.323 78.837,48.755 96.69,48.755 97.692,55.638 
				101.852,55.638 101.852,39.705 			"/>
		</g>
		<g>
			<polygon style="fill:none;stroke:#F1592B;stroke-miterlimit:10;" points="46.61,39.705 46.61,55.638 50.769,55.638 
				51.776,48.755 69.627,48.755 69.627,97.323 63.381,97.323 63.381,101.852 85.085,101.852 85.085,97.323 78.837,97.323 
				78.837,48.755 96.69,48.755 97.692,55.638 101.852,55.638 101.852,39.705 			"/>
		</g>
	</g>
</g>
<g id="Layer_1">
</g>
</svg>
