<?xml version="1.0" encoding="iso-8859-1"?>
<!-- Generator: Adobe Illustrator 19.1.0, SVG Export Plug-In . SVG Version: 6.00 Build 0)  -->
<svg version="1.1" xmlns="http://www.w3.org/2000/svg" xmlns:xlink="http://www.w3.org/1999/xlink" x="0px" y="0px"
	 viewBox="0 0 145.01 145" style="enable-background:new 0 0 145.01 145;" xml:space="preserve">
<g id="text_x5F_read">
	<g id="shape_24_">
		<g>
			<path style="fill:#FFFFFF;" d="M72.505,144C33.077,144,1,111.925,1,72.5C1,33.075,33.077,1,72.505,1s71.505,32.075,71.505,71.5
				C144.01,111.925,111.933,144,72.505,144z"/>
		</g>
		<g>
			<path style="fill:#F1592B;" d="M72.505,2c38.877,0,70.505,31.626,70.505,70.5S111.381,143,72.505,143S2,111.374,2,72.5
				S33.628,2,72.505,2 M72.505,0C32.461,0,0,32.459,0,72.5C0,112.54,32.461,145,72.505,145c40.043,0,72.505-32.46,72.505-72.5
				C145.01,32.459,112.548,0,72.505,0L72.505,0z"/>
		</g>
	</g>
	<g id="text_icon">
		<g>
			<polygon style="fill:#F1592B;" points="46.61,39.705 46.61,55.638 50.769,55.638 51.776,48.755 69.627,48.755 69.627,97.323 
				63.381,97.323 63.381,101.852 85.085,101.852 85.085,97.323 78.837,97.323 78.837,48.755 96.69,48.755 97.692,55.638 
				101.852,55.638 101.852,39.705 			"/>
		</g>
	</g>
</g>
<g id="Layer_1">
</g>
</svg>
