<?xml version="1.0" encoding="iso-8859-1"?>
<!-- Generator: Adobe Illustrator 19.1.0, SVG Export Plug-In . SVG Version: 6.00 Build 0)  -->
<svg version="1.1" xmlns="http://www.w3.org/2000/svg" xmlns:xlink="http://www.w3.org/1999/xlink" x="0px" y="0px"
	 viewBox="0 0 144.989 145" style="enable-background:new 0 0 144.989 145;" xml:space="preserve">
<g id="video_x5F_unread">
	<g id="shape_6_">
		<g>
			<path style="fill:#EF4781;" d="M72.495,144.75c-39.836,0-72.245-32.411-72.245-72.25c0-39.839,32.409-72.25,72.245-72.25
				c39.835,0,72.245,32.412,72.245,72.25C144.739,112.339,112.33,144.75,72.495,144.75z"/>
		</g>
		<g>
			<path style="fill:#EF4781;" d="M72.495,0.5c39.698,0,71.995,32.299,71.995,72.001c0,39.701-32.297,71.999-71.995,71.999
				S0.5,112.201,0.5,72.501C0.5,32.799,32.797,0.5,72.495,0.5 M72.495,0C32.457,0,0,32.459,0,72.501
				C0,112.541,32.457,145,72.495,145c40.038,0,72.495-32.459,72.495-72.499C144.989,32.459,112.532,0,72.495,0L72.495,0z"/>
		</g>
	</g>
	<g id="video_icon_2_">
		<g>
			<path style="fill:#FFFFFF;" d="M102.094,67.557l-13.267,8.875c0-2.693-1.22-5.077-3.109-6.705
				c4.496-2.719,7.531-7.614,7.531-13.265c0-8.577-6.93-15.531-15.478-15.531c-8.549,0-15.479,6.953-15.479,15.531
				c0,4.352,1.793,8.275,4.668,11.095h-8.111c2.118-2.359,3.443-5.449,3.443-8.876c0-7.353-5.939-13.313-13.268-13.313
				c-7.328,0-13.267,5.961-13.267,13.313c0,4.012,1.806,7.566,4.604,10.007c-2.731,1.511-4.604,4.394-4.604,7.744v17.75
				c0,4.901,3.96,8.875,8.845,8.875h35.381c4.884,0,8.845-3.974,8.845-8.875l13.267,8.875c2.444,0,4.423-1.985,4.423-4.438V71.994
				C106.518,69.542,104.538,67.557,102.094,67.557z M49.023,67.557c-4.884,0-8.845-3.975-8.845-8.876
				c0-4.901,3.96-8.875,8.845-8.875c4.885,0,8.845,3.975,8.845,8.875C57.868,63.582,53.908,67.557,49.023,67.557z M77.771,67.581
				c-6.121,0-11.081-4.979-11.081-11.12c0-6.14,4.962-11.119,11.081-11.119c6.118,0,11.08,4.978,11.08,11.119
				C88.85,62.605,83.891,67.581,77.771,67.581z"/>
		</g>
	</g>
</g>
<g id="Layer_1">
</g>
</svg>
