<?xml version="1.0" encoding="iso-8859-1"?>
<!-- Generator: Adobe Illustrator 19.1.0, SVG Export Plug-In . SVG Version: 6.00 Build 0)  -->
<svg version="1.1" xmlns="http://www.w3.org/2000/svg" xmlns:xlink="http://www.w3.org/1999/xlink" x="0px" y="0px"
	 viewBox="0 0 145.009 145" style="enable-background:new 0 0 145.009 145;" xml:space="preserve">
<g id="xls_x5F_unread">
	<g id="shape_22_">
		<g>
			<path style="fill:#4555A5;" d="M72.504,144.75c-39.841,0-72.254-32.411-72.254-72.25c0-39.838,32.413-72.25,72.254-72.25
				s72.254,32.411,72.254,72.25C144.759,112.339,112.346,144.75,72.504,144.75z"/>
		</g>
		<g>
			<path style="fill:#4555A5;" d="M72.504,0.5c39.703,0,72.004,32.299,72.004,71.999c0,39.701-32.301,72.001-72.004,72.001
				S0.5,112.201,0.5,72.499C0.5,32.799,32.801,0.5,72.504,0.5 M72.504,0C32.461,0,0,32.459,0,72.499
				C0,112.541,32.461,145,72.504,145c40.043,0,72.504-32.459,72.504-72.501C145.009,32.459,112.547,0,72.504,0L72.504,0z"/>
		</g>
	</g>
	<g id="xls_icon_2_">
		<g>
			<path style="fill:#FFFFFF;" d="M95.795,61.74h-1.503v-7.201c0-0.045-0.007-0.089-0.013-0.135
				c-0.002-0.286-0.095-0.566-0.292-0.789L81.916,39.927c-0.004-0.004-0.007-0.006-0.01-0.01c-0.072-0.079-0.156-0.146-0.244-0.203
				c-0.026-0.017-0.053-0.032-0.08-0.047c-0.077-0.042-0.158-0.076-0.242-0.102c-0.023-0.005-0.043-0.015-0.066-0.021
				c-0.091-0.021-0.186-0.035-0.282-0.035H51.326c-1.355,0-2.455,1.094-2.455,2.437v19.793h-1.503c-1.938,0-3.509,1.559-3.509,3.483
				v18.114c0,1.923,1.571,3.483,3.509,3.483h1.503v12.4c0,1.343,1.1,2.437,2.455,2.437h40.51c1.353,0,2.455-1.094,2.455-2.437V86.82
				h1.503c1.937,0,3.509-1.561,3.509-3.483V65.223C99.303,63.298,97.733,61.74,95.795,61.74z M51.326,41.947h28.438v12.469
				c0,0.673,0.55,1.219,1.227,1.219h10.845v6.106h-40.51V41.947z M78.874,79.49v3.535H67.16V64.412h4.258V79.49H78.874z
				 M48.717,83.025l5.425-9.417l-5.231-9.196h4.869l1.641,3.396c0.557,1.132,0.974,2.044,1.42,3.093h0.055
				c0.446-1.188,0.807-2.016,1.28-3.093l1.586-3.396h4.841l-5.286,9.086l5.565,9.527h-4.897l-1.697-3.368
				c-0.695-1.299-1.141-2.265-1.669-3.342h-0.056c-0.39,1.078-0.862,2.044-1.446,3.342l-1.558,3.368H48.717z M91.836,98.56h-40.51
				V86.82h40.51V98.56z M85.966,83.301c-2.141,0-4.256-0.553-5.312-1.132l0.861-3.479c1.141,0.579,2.894,1.159,4.703,1.159
				c1.948,0,2.977-0.8,2.977-2.015c0-1.16-0.89-1.824-3.144-2.624c-3.116-1.077-5.147-2.79-5.147-5.497
				c0-3.175,2.671-5.606,7.096-5.606c2.114,0,3.672,0.443,4.785,0.94l-0.946,3.396c-0.751-0.359-2.087-0.884-3.923-0.884
				c-1.836,0-2.726,0.828-2.726,1.795c0,1.188,1.056,1.713,3.477,2.624c3.311,1.215,4.869,2.927,4.869,5.55
				C93.535,80.65,91.115,83.301,85.966,83.301z"/>
		</g>
		<g>
			<path style="fill:none;stroke:#FFFFFF;stroke-miterlimit:10;" d="M95.795,61.74h-1.503v-7.201c0-0.045-0.007-0.089-0.013-0.135
				c-0.002-0.286-0.095-0.566-0.292-0.789L81.916,39.927c-0.004-0.004-0.007-0.006-0.01-0.01c-0.072-0.079-0.156-0.146-0.244-0.203
				c-0.026-0.017-0.053-0.032-0.08-0.047c-0.077-0.042-0.158-0.076-0.242-0.102c-0.023-0.005-0.043-0.015-0.066-0.021
				c-0.091-0.021-0.186-0.035-0.282-0.035H51.326c-1.355,0-2.455,1.094-2.455,2.437v19.793h-1.503c-1.938,0-3.509,1.559-3.509,3.483
				v18.114c0,1.923,1.571,3.483,3.509,3.483h1.503v12.4c0,1.343,1.1,2.437,2.455,2.437h40.51c1.353,0,2.455-1.094,2.455-2.437V86.82
				h1.503c1.937,0,3.509-1.561,3.509-3.483V65.223C99.303,63.298,97.733,61.74,95.795,61.74z M51.326,41.947h28.438v12.469
				c0,0.673,0.55,1.219,1.227,1.219h10.845v6.106h-40.51V41.947z M78.874,79.49v3.535H67.16V64.412h4.258V79.49H78.874z
				 M48.717,83.025l5.425-9.417l-5.231-9.196h4.869l1.641,3.396c0.557,1.132,0.974,2.044,1.42,3.093h0.055
				c0.446-1.188,0.807-2.016,1.28-3.093l1.586-3.396h4.841l-5.286,9.086l5.565,9.527h-4.897l-1.697-3.368
				c-0.695-1.299-1.141-2.265-1.669-3.342h-0.056c-0.39,1.078-0.862,2.044-1.446,3.342l-1.558,3.368H48.717z M91.836,98.56h-40.51
				V86.82h40.51V98.56z M85.966,83.301c-2.141,0-4.256-0.553-5.312-1.132l0.861-3.479c1.141,0.579,2.894,1.159,4.703,1.159
				c1.948,0,2.977-0.8,2.977-2.015c0-1.16-0.89-1.824-3.144-2.624c-3.116-1.077-5.147-2.79-5.147-5.497
				c0-3.175,2.671-5.606,7.096-5.606c2.114,0,3.672,0.443,4.785,0.94l-0.946,3.396c-0.751-0.359-2.087-0.884-3.923-0.884
				c-1.836,0-2.726,0.828-2.726,1.795c0,1.188,1.056,1.713,3.477,2.624c3.311,1.215,4.869,2.927,4.869,5.55
				C93.535,80.65,91.115,83.301,85.966,83.301z"/>
		</g>
	</g>
</g>
<g id="Layer_1">
</g>
</svg>
